# Blender 4.4.1
# www.blender.org
mtllib enemy2.mtl
o MN157_J03
v 0.582912 -0.081319 0.362011
v 0.531946 -0.031787 0.398398
v 0.534792 -0.052448 0.401786
v 0.580356 -0.049000 0.336921
v 0.531110 -0.019627 0.382428
v 0.626815 -0.124806 0.322355
v 0.630619 -0.099106 0.285669
v 0.659211 -0.156925 0.293580
v 0.678756 -0.161176 0.238723
v 0.683308 -0.177482 0.234378
v 0.684101 -0.193140 0.250950
v 0.658062 -0.207044 0.320712
v 0.638536 -0.167257 0.345097
v 0.630592 -0.232819 0.388345
v 0.612421 -0.191013 0.403960
v 0.599384 -0.233973 0.449931
v 0.590827 -0.210732 0.450223
v 0.608241 -0.252919 0.436995
v 0.582912 -0.081319 -0.362011
v 0.534792 -0.052448 -0.401787
v 0.531946 -0.031787 -0.398398
v 0.580356 -0.049000 -0.336921
v 0.531110 -0.019627 -0.382428
v 0.626815 -0.124806 -0.322355
v 0.630619 -0.099106 -0.285669
v 0.659211 -0.156925 -0.293580
v 0.678756 -0.161176 -0.238723
v 0.683308 -0.177482 -0.234378
v 0.684101 -0.193140 -0.250950
v 0.658062 -0.207044 -0.320712
v 0.638536 -0.167257 -0.345097
v 0.630592 -0.232819 -0.388345
v 0.612421 -0.191013 -0.403960
v 0.599384 -0.233973 -0.449931
v 0.590827 -0.210732 -0.450224
v 0.608241 -0.252919 -0.436995
v 0.648923 -0.145909 0.348095
v 0.593840 -0.024016 0.309375
v 0.578305 -0.027200 0.346798
v 0.567554 -0.042537 0.382640
v 0.562833 -0.067737 0.414678
v 0.562074 -0.101837 0.437264
v 0.567864 -0.140128 0.451120
v 0.648923 -0.145909 0.348095
v 0.658679 -0.271908 0.372277
v 0.677627 -0.269844 0.334258
v 0.691555 -0.254952 0.299905
v 0.700069 -0.230325 0.269412
v 0.698188 -0.197544 0.245576
v 0.690294 -0.160131 0.230724
v 0.648923 -0.145909 0.348095
v 0.690294 -0.160131 0.230724
v 0.675322 -0.123457 0.226141
v 0.656447 -0.088982 0.232429
v 0.634797 -0.056482 0.249365
v 0.612973 -0.032528 0.274955
v 0.593840 -0.024016 0.309375
v 0.648923 -0.145909 0.348095
v 0.567864 -0.140128 0.451120
v 0.580546 -0.178646 0.454280
v 0.598072 -0.214284 0.447252
v 0.616973 -0.242839 0.431409
v 0.637346 -0.262759 0.407449
v 0.658679 -0.271908 0.372277
v 0.648923 -0.145909 -0.348095
v 0.690294 -0.160131 -0.230724
v 0.698188 -0.197544 -0.245576
v 0.700069 -0.230325 -0.269412
v 0.691555 -0.254952 -0.299905
v 0.677627 -0.269844 -0.334258
v 0.658679 -0.271908 -0.372277
v 0.648923 -0.145909 -0.348095
v 0.567864 -0.140128 -0.451120
v 0.562074 -0.101837 -0.437265
v 0.562833 -0.067737 -0.414678
v 0.567554 -0.042537 -0.382640
v 0.578305 -0.027200 -0.346798
v 0.593840 -0.024016 -0.309375
v 0.648923 -0.145909 -0.348095
v 0.593840 -0.024016 -0.309375
v 0.612973 -0.032528 -0.274955
v 0.634797 -0.056482 -0.249365
v 0.656447 -0.088982 -0.232430
v 0.675322 -0.123457 -0.226141
v 0.690294 -0.160131 -0.230724
v 0.648923 -0.145909 -0.348095
v 0.658679 -0.271908 -0.372277
v 0.637346 -0.262759 -0.407449
v 0.616973 -0.242839 -0.431409
v 0.598072 -0.214284 -0.447252
v 0.580546 -0.178646 -0.454280
v 0.567864 -0.140128 -0.451120
v -0.435135 0.354771 0.888702
v -0.424729 0.409187 0.886133
v -0.411972 0.357866 0.880949
v -0.447644 0.357891 0.924305
v -0.401429 0.315919 0.874171
v -0.461328 0.295705 0.912364
v -0.470726 0.300748 0.950982
v -0.476251 0.257554 0.957046
v -0.436436 0.301437 0.872244
v -0.460682 0.229888 0.890766
v -0.466323 0.195696 0.947549
v -0.456099 0.169727 0.936161
v -0.416325 0.231035 0.826591
v -0.385594 0.288232 0.856996
v -0.368303 0.267162 0.836742
v -0.443673 0.165182 0.843397
v -0.439164 0.139100 0.916470
v -0.355587 0.163201 0.744813
v -0.310790 0.218094 0.772290
v -0.271399 0.182986 0.727303
v -0.401183 0.130491 0.795754
v -0.301344 0.106850 0.683960
v -0.235972 0.142451 0.688758
v -0.210302 0.096017 0.659909
v -0.358543 0.089532 0.747926
v -0.412269 0.111510 0.853214
v -0.279381 0.057311 0.659251
v -0.200140 0.053348 0.648424
v -0.381867 0.079513 0.790438
v -0.275538 -0.004853 0.654786
v -0.195421 0.008824 0.643010
v -0.199829 -0.046185 0.647329
v -0.338982 0.001779 0.724957
v -0.292419 -0.066286 0.673515
v -0.211134 -0.088326 0.659887
v -0.233824 -0.127278 0.684511
v -0.272334 -0.164264 0.728643
v -0.342560 -0.099805 0.729540
v -0.314101 -0.172946 0.777982
v -0.368347 -0.088798 0.758428
v -0.351367 -0.153907 0.819507
v -0.400054 -0.065253 0.793732
v -0.376809 -0.126219 0.848326
v -0.396045 -0.091608 0.867010
v -0.404102 -0.061023 0.875828
v -0.402930 -0.015174 0.797325
v -0.426544 -0.006521 0.833740
v -0.378024 0.024058 0.769554
v -0.413637 0.048869 0.807435
v -0.461256 0.082770 0.864365
v -0.473097 0.030522 0.900830
v -0.448698 -0.043501 0.926333
v -0.485334 -0.006914 0.967431
v -0.507594 0.038066 0.990251
v -0.512831 0.104329 0.955037
v -0.471921 0.149461 0.958316
v -0.520085 0.076099 1.005159
v -0.521895 0.180670 1.008925
v -0.527970 0.131171 1.015638
v -0.435135 0.354771 -0.888702
v -0.411972 0.357866 -0.880949
v -0.424729 0.409187 -0.886133
v -0.447644 0.357891 -0.924305
v -0.401429 0.315919 -0.874171
v -0.461328 0.295705 -0.912364
v -0.470726 0.300748 -0.950982
v -0.476251 0.257554 -0.957046
v -0.436436 0.301437 -0.872244
v -0.460682 0.229888 -0.890766
v -0.466323 0.195696 -0.947549
v -0.456099 0.169727 -0.936161
v -0.416325 0.231035 -0.826591
v -0.385594 0.288232 -0.856996
v -0.368303 0.267162 -0.836742
v -0.443673 0.165182 -0.843397
v -0.439164 0.139100 -0.916470
v -0.355587 0.163201 -0.744813
v -0.310790 0.218094 -0.772290
v -0.271399 0.182986 -0.727303
v -0.401183 0.130491 -0.795754
v -0.301344 0.106850 -0.683960
v -0.235972 0.142451 -0.688758
v -0.210302 0.096017 -0.659909
v -0.358543 0.089532 -0.747926
v -0.412269 0.111510 -0.853214
v -0.381867 0.079513 -0.790438
v -0.279381 0.057311 -0.659251
v -0.200140 0.053348 -0.648424
v -0.338983 0.001779 -0.724957
v -0.275538 -0.004853 -0.654786
v -0.195421 0.008824 -0.643010
v -0.199829 -0.046185 -0.647329
v -0.292419 -0.066286 -0.673515
v -0.211135 -0.088326 -0.659887
v -0.233824 -0.127278 -0.684511
v -0.272334 -0.164264 -0.728643
v -0.342560 -0.099805 -0.729540
v -0.314101 -0.172946 -0.777982
v -0.368347 -0.088798 -0.758428
v -0.351367 -0.153907 -0.819507
v -0.400054 -0.065253 -0.793732
v -0.376809 -0.126219 -0.848326
v -0.396045 -0.091608 -0.867010
v -0.404103 -0.061023 -0.875828
v -0.402930 -0.015174 -0.797325
v -0.426544 -0.006521 -0.833740
v -0.378024 0.024058 -0.769554
v -0.413637 0.048869 -0.807435
v -0.461256 0.082770 -0.864365
v -0.473097 0.030522 -0.900830
v -0.448698 -0.043501 -0.926333
v -0.485335 -0.006914 -0.967431
v -0.507594 0.038066 -0.990251
v -0.512831 0.104329 -0.955037
v -0.471921 0.149461 -0.958316
v -0.520085 0.076099 -1.005159
v -0.521895 0.180670 -1.008925
v -0.527970 0.131171 -1.015638
v -0.200140 0.053348 0.648424
v -0.210302 0.096017 0.659909
v -0.199183 0.057887 0.724563
v -0.195421 0.008824 0.643010
v -0.235972 0.142451 0.688758
v -0.194180 -0.013272 0.718487
v -0.199829 -0.046185 0.647329
v -0.211134 -0.088326 0.659887
v -0.235309 0.120069 0.765149
v -0.271399 0.182986 0.727303
v -0.310790 0.218094 0.772290
v -0.213877 -0.078588 0.742335
v -0.233824 -0.127278 0.684511
v -0.272334 -0.164264 0.728643
v -0.257037 0.004884 0.789104
v -0.247971 -0.106241 0.777315
v -0.314101 -0.172946 0.777982
v -0.286391 -0.113253 0.819067
v -0.351367 -0.153907 0.819507
v -0.291319 -0.033539 0.826023
v -0.318681 -0.090585 0.855533
v -0.376809 -0.126219 0.848326
v -0.396045 -0.091608 0.867010
v -0.328167 -0.036156 0.869092
v -0.404102 -0.061023 0.875828
v -0.300650 0.023876 0.838693
v -0.366355 -0.011622 0.902864
v -0.448698 -0.043501 0.926333
v -0.273444 0.101543 0.816477
v -0.424887 0.029868 0.957303
v -0.485334 -0.006914 0.967431
v -0.507594 0.038066 0.990251
v -0.337568 0.049874 0.879090
v -0.325594 0.091805 0.843733
v -0.472191 0.107316 1.000438
v -0.520085 0.076099 1.005159
v -0.527970 0.131171 1.015638
v -0.521895 0.180670 1.008925
v -0.471921 0.149461 0.958316
v -0.388388 0.081048 0.932161
v -0.439164 0.139100 0.916470
v -0.377094 0.115120 0.891756
v -0.383610 0.183262 0.917715
v -0.456099 0.169727 0.936161
v -0.466323 0.195696 0.947549
v -0.328870 0.146819 0.872775
v -0.412833 0.247657 0.935417
v -0.476251 0.257554 0.957046
v -0.470726 0.300748 0.950982
v -0.302892 0.181455 0.834747
v -0.368303 0.267162 0.836742
v -0.355262 0.228651 0.882121
v -0.385594 0.288232 0.856996
v -0.387715 0.266114 0.907324
v -0.401429 0.315919 0.874171
v -0.412355 0.332929 0.916035
v -0.411972 0.357866 0.880949
v -0.447644 0.357891 0.924305
v -0.424729 0.409187 0.886133
v -0.200140 0.053348 -0.648424
v -0.199183 0.057887 -0.724563
v -0.210302 0.096017 -0.659909
v -0.195421 0.008824 -0.643010
v -0.235972 0.142451 -0.688758
v -0.194180 -0.013272 -0.718487
v -0.199829 -0.046185 -0.647329
v -0.211135 -0.088326 -0.659887
v -0.235309 0.120069 -0.765149
v -0.271399 0.182986 -0.727303
v -0.310790 0.218094 -0.772290
v -0.257037 0.004884 -0.789104
v -0.213877 -0.078588 -0.742335
v -0.233824 -0.127278 -0.684511
v -0.272334 -0.164264 -0.728643
v -0.247971 -0.106241 -0.777315
v -0.314101 -0.172946 -0.777982
v -0.286391 -0.113253 -0.819067
v -0.351367 -0.153907 -0.819507
v -0.291319 -0.033539 -0.826023
v -0.318681 -0.090585 -0.855533
v -0.376809 -0.126219 -0.848326
v -0.396045 -0.091608 -0.867010
v -0.328167 -0.036156 -0.869092
v -0.404103 -0.061023 -0.875828
v -0.300650 0.023876 -0.838693
v -0.366355 -0.011622 -0.902864
v -0.448698 -0.043501 -0.926333
v -0.273444 0.101543 -0.816477
v -0.424887 0.029868 -0.957303
v -0.485335 -0.006914 -0.967431
v -0.507594 0.038066 -0.990251
v -0.337568 0.049874 -0.879090
v -0.325595 0.091805 -0.843733
v -0.472191 0.107316 -1.000438
v -0.520085 0.076099 -1.005159
v -0.527970 0.131171 -1.015638
v -0.521895 0.180670 -1.008925
v -0.471921 0.149461 -0.958316
v -0.388388 0.081048 -0.932161
v -0.439164 0.139100 -0.916470
v -0.377094 0.115120 -0.891756
v -0.383610 0.183262 -0.917715
v -0.456099 0.169727 -0.936161
v -0.466323 0.195696 -0.947549
v -0.328870 0.146819 -0.872775
v -0.412833 0.247657 -0.935417
v -0.476251 0.257554 -0.957046
v -0.470726 0.300748 -0.950982
v -0.355262 0.228651 -0.882121
v -0.302892 0.181455 -0.834747
v -0.368303 0.267162 -0.836742
v -0.385594 0.288232 -0.856996
v -0.387715 0.266114 -0.907324
v -0.401429 0.315919 -0.874171
v -0.412355 0.332929 -0.916035
v -0.411972 0.357866 -0.880949
v -0.447644 0.357891 -0.924305
v -0.424729 0.409187 -0.886133
v 0.734411 -0.309390 0.038121
v 0.735483 -0.339399 -0.000000
v 0.737112 -0.311527 -0.000000
v 0.733528 -0.287098 -0.000000
v 0.728942 -0.341253 0.059047
v 0.717081 -0.437797 -0.000000
v 0.730657 -0.285293 0.038441
v 0.719718 -0.279991 -0.000000
v 0.729901 -0.304017 0.076241
v 0.715051 -0.280548 0.038444
v 0.694625 -0.273376 -0.000000
v 0.725977 -0.280252 0.076881
v 0.693036 -0.273486 0.036545
v 0.671283 -0.263382 -0.000000
v 0.708522 -0.274625 0.073657
v 0.670168 -0.262874 0.035093
v 0.688482 -0.265644 0.078250
v 0.662691 -0.246830 0.035119
v 0.663451 -0.246109 -0.000000
v 0.677123 -0.262429 0.060625
v 0.661781 -0.228507 0.035153
v 0.661823 -0.226079 -0.000000
v 0.670162 -0.248027 0.062654
v 0.669290 -0.233690 0.060421
v 0.671565 -0.206763 0.037116
v 0.670686 -0.203578 -0.000000
v 0.694083 -0.176211 -0.000000
v 0.675587 -0.224146 0.078476
v 0.691945 -0.179196 0.043027
v 0.707760 -0.164094 -0.000000
v 0.693027 -0.196672 0.086054
v 0.682133 -0.247215 0.094845
v 0.694757 -0.211797 0.108011
v 0.703749 -0.183731 0.092124
v 0.705755 -0.167503 0.046062
v 0.700083 -0.140177 0.050561
v 0.701185 -0.134071 -0.000000
v 0.673234 -0.076814 -0.000000
v 0.698980 -0.159101 0.101121
v 0.675563 -0.097163 0.091269
v 0.646849 -0.034736 -0.000000
v 0.702439 -0.181332 0.135909
v 0.705977 -0.200316 0.120536
v 0.710120 -0.218989 0.133285
v 0.669456 -0.127035 0.217124
v 0.698004 -0.228471 0.117153
v 0.704920 -0.215892 0.161981
v 0.714253 -0.241470 0.133642
v 0.700355 -0.243142 0.117779
v 0.702523 -0.253133 0.114057
v 0.711338 -0.243297 0.165809
v 0.716987 -0.256793 0.128894
v 0.699483 -0.244970 0.225564
v 0.714866 -0.275884 0.152492
v 0.720790 -0.271657 0.109890
v 0.705809 -0.264785 0.100670
v 0.723390 -0.296167 0.119693
v 0.719951 -0.335225 0.126443
v 0.704737 -0.331493 0.219241
v 0.706663 -0.441445 0.089622
v 0.689792 -0.448301 0.194591
v 0.654656 -0.553159 0.082418
v 0.659861 -0.553133 -0.000000
v 0.648907 -0.553185 0.171736
v 0.591761 -0.620682 0.071562
v 0.598772 -0.618644 -0.000000
v 0.515049 -0.673607 -0.000000
v 0.584207 -0.622720 0.150004
v 0.506646 -0.676037 0.062283
v 0.401422 -0.719825 -0.000000
v 0.495875 -0.678215 0.130660
v 0.393486 -0.718864 0.047222
v 0.284161 -0.748865 -0.000000
v 0.538180 -0.627891 0.282062
v 0.281394 -0.747085 0.038053
v -0.004818 -0.771979 0.000000
v 0.379106 -0.719084 0.105813
v 0.456087 -0.683524 0.246612
v 0.273300 -0.748031 0.077735
v 0.345846 -0.723036 0.186816
v 0.245836 -0.749556 0.129713
v 0.288045 -0.732926 0.275335
v 0.374693 -0.690947 0.364457
v 0.190755 -0.755364 0.192654
v 0.155235 -0.734891 0.365520
v 0.107001 -0.754879 0.248068
v 0.440021 -0.635145 0.432132
v 0.203124 -0.695756 0.481892
v -0.003317 -0.736875 0.394134
v 0.594811 -0.559399 0.315314
v -0.004193 -0.756813 0.268250
v 0.639960 -0.452697 0.348880
v 0.485469 -0.561805 0.490845
v 0.240128 -0.641705 0.573105
v 0.654106 -0.338404 0.369772
v -0.001285 -0.643745 0.619546
v 0.514829 -0.460611 0.536309
v 0.262362 -0.578062 0.635425
v 0.292670 -0.478481 0.679403
v 0.527698 -0.355700 0.553388
v 0.297773 -0.370605 0.701214
v 0.518800 -0.272084 0.552517
v 0.645279 -0.255296 0.366577
v 0.296412 -0.284340 0.701133
v 0.615970 -0.133579 0.359192
v 0.490114 -0.144154 0.523451
v 0.275280 -0.157283 0.674158
v 0.449723 -0.031640 0.484131
v 0.565756 -0.032616 0.330562
v 0.630568 -0.033570 0.154767
v 0.409576 0.050236 0.432911
v 0.577986 0.040736 0.141382
v 0.590010 0.042786 -0.000000
v 0.522462 0.041763 0.297633
v 0.481068 0.123012 0.114774
v 0.492282 0.121517 -0.000000
v 0.364731 0.199874 -0.000000
v 0.435251 0.127290 0.227862
v 0.348595 0.201174 0.071051
v 0.200253 0.286839 -0.000000
v 0.324869 0.204159 0.148601
v 0.344759 0.131123 0.353854
v 0.264953 0.205189 0.248701
v 0.192701 0.288456 0.026832
v 0.129937 0.339149 -0.000000
v 0.179543 0.293515 0.063613
v 0.124714 0.340211 0.013688
v 0.063359 0.407411 -0.000000
v 0.146029 0.297400 0.101009
v 0.113887 0.344716 0.037324
v 0.058044 0.408674 0.008943
v 0.007902 0.472140 -0.000000
v 0.096190 0.350923 0.056776
v 0.005445 0.472425 0.005077
v -0.010584 0.493720 0.000000
v 0.052729 0.409937 0.017885
v -0.013592 0.493636 0.007613
v 0.002988 0.472710 0.010154
v 0.047325 0.363395 0.085500
v 0.024655 0.418114 0.044657
v -0.004030 0.474764 0.016781
v 0.065540 0.308600 0.142596
v -0.001616 0.369175 0.092919
v 0.136395 0.210275 0.327334
v 0.001407 0.313742 0.150169
v -0.008433 0.224221 0.343527
v 0.184748 0.131108 0.454359
v -0.010817 0.150129 0.476186
v 0.222982 0.054887 0.548635
v -0.010042 0.068342 0.579565
v 0.251240 -0.033115 0.613193
v -0.006462 -0.025498 0.665103
v -0.001754 -0.151322 0.727805
v -0.246395 0.059753 0.524089
v -0.273948 -0.031462 0.603667
v 0.000422 -0.298136 0.764853
v -0.289930 -0.150862 0.664787
v 0.000502 -0.379999 0.762635
v -0.490908 -0.044888 0.464946
v 0.000962 -0.483865 0.738361
v -0.296094 -0.383943 0.707751
v 0.000731 -0.578875 0.687847
v -0.287602 -0.482950 0.688654
v -0.271029 -0.574524 0.642897
v -0.239850 -0.641894 0.580093
v -0.483651 -0.557060 0.495607
v -0.517383 -0.464349 0.530342
v -0.298584 -0.301804 0.706444
v -0.537825 -0.363926 0.546033
v -0.526204 -0.151767 0.512006
v -0.543378 -0.288595 0.545222
v -0.686091 -0.348852 0.303938
v -0.691450 -0.276206 0.302320
v -0.660843 -0.456258 0.287833
v -0.734019 -0.348939 0.000000
v -0.740948 -0.274190 0.000000
v -0.705625 -0.454815 0.000000
v -0.666949 -0.147815 0.278491
v -0.716659 -0.143101 0.000000
v -0.620028 -0.553171 0.258171
v -0.657712 -0.554270 0.000000
v -0.626314 -0.044853 0.236988
v -0.666510 -0.037155 0.000000
v -0.440584 0.039913 0.399497
v -0.561741 0.034507 0.200725
v -0.607173 0.027978 0.000000
v -0.506770 0.110963 0.000000
v -0.209077 0.143080 0.427602
v -0.370960 0.123127 0.322480
v -0.469517 0.117872 0.158414
v -0.358921 0.201265 0.000000
v -0.265611 0.212932 0.220866
v -0.155533 0.224338 0.300364
v -0.333607 0.207275 0.106946
v -0.153580 0.316835 0.000000
v -0.072151 0.321715 0.121094
v -0.143299 0.319803 0.038994
v -0.105088 0.366144 0.000000
v -0.115576 0.321313 0.086599
v -0.087364 0.369058 0.038942
v -0.049266 0.372175 0.078532
v -0.035171 0.419192 0.046438
v -0.060536 0.416562 0.021190
v -0.066859 0.413566 0.000000
v -0.034924 0.473553 0.000000
v -0.005217 0.419431 0.052966
v -0.025491 0.475118 0.016543
v -0.014418 0.475126 0.020164
v -0.031832 0.474449 0.010292
v -0.017485 0.493676 0.009371
v -0.022264 0.493746 0.006708
v -0.024279 0.493552 0.000000
v -0.002276 -0.698010 0.518891
v -0.205613 -0.696511 0.482084
v -0.439340 -0.630781 0.441596
v -0.161520 -0.736267 0.362412
v -0.376059 -0.689526 0.367243
v -0.567587 -0.623812 0.229448
v -0.603838 -0.620690 0.000000
v -0.488152 -0.684548 0.189224
v -0.522575 -0.680526 0.000000
v -0.293544 -0.734071 0.273013
v -0.380341 -0.731618 0.137037
v -0.410100 -0.729517 0.000000
v -0.294319 -0.756253 0.000000
v -0.116906 -0.758386 0.245436
v -0.210202 -0.757443 0.182446
v -0.272377 -0.757105 0.087853
v 0.735483 -0.339399 -0.000000
v 0.734411 -0.309390 -0.038121
v 0.737112 -0.311527 -0.000000
v 0.733528 -0.287098 -0.000000
v 0.728942 -0.341253 -0.059048
v 0.717081 -0.437797 -0.000000
v 0.730657 -0.285293 -0.038441
v 0.719718 -0.279991 -0.000000
v 0.729901 -0.304017 -0.076241
v 0.715051 -0.280548 -0.038444
v 0.694625 -0.273376 -0.000000
v 0.725977 -0.280252 -0.076881
v 0.693036 -0.273486 -0.036545
v 0.671283 -0.263382 -0.000000
v 0.708522 -0.274625 -0.073657
v 0.670168 -0.262874 -0.035093
v 0.688482 -0.265644 -0.078250
v 0.662691 -0.246830 -0.035119
v 0.677123 -0.262429 -0.060625
v 0.663451 -0.246109 -0.000000
v 0.670162 -0.248027 -0.062654
v 0.705809 -0.264785 -0.100670
v 0.661781 -0.228507 -0.035153
v 0.661823 -0.226079 -0.000000
v 0.669290 -0.233690 -0.060421
v 0.671565 -0.206763 -0.037116
v 0.670686 -0.203578 -0.000000
v 0.694083 -0.176211 -0.000000
v 0.675587 -0.224146 -0.078477
v 0.691945 -0.179196 -0.043027
v 0.707760 -0.164094 -0.000000
v 0.693027 -0.196672 -0.086054
v 0.682133 -0.247215 -0.094845
v 0.694757 -0.211797 -0.108011
v 0.703749 -0.183731 -0.092124
v 0.705755 -0.167503 -0.046062
v 0.700083 -0.140177 -0.050561
v 0.701185 -0.134071 -0.000000
v 0.673234 -0.076814 -0.000000
v 0.698980 -0.159101 -0.101121
v 0.675563 -0.097163 -0.091269
v 0.646849 -0.034736 -0.000000
v 0.702439 -0.181332 -0.135909
v 0.705977 -0.200316 -0.120536
v 0.710120 -0.218989 -0.133285
v 0.669456 -0.127035 -0.217124
v 0.698004 -0.228471 -0.117153
v 0.704920 -0.215892 -0.161981
v 0.714253 -0.241470 -0.133642
v 0.700355 -0.243142 -0.117779
v 0.702523 -0.253133 -0.114057
v 0.716987 -0.256793 -0.128894
v 0.720790 -0.271657 -0.109890
v 0.723390 -0.296167 -0.119694
v 0.711338 -0.243297 -0.165809
v 0.714866 -0.275884 -0.152492
v 0.719951 -0.335225 -0.126444
v 0.699483 -0.244970 -0.225564
v 0.704737 -0.331493 -0.219241
v 0.706663 -0.441445 -0.089622
v 0.689792 -0.448301 -0.194591
v 0.654656 -0.553159 -0.082418
v 0.659861 -0.553133 -0.000000
v 0.648907 -0.553185 -0.171736
v 0.591761 -0.620682 -0.071562
v 0.598772 -0.618644 -0.000000
v 0.515049 -0.673607 -0.000000
v 0.584207 -0.622720 -0.150004
v 0.506646 -0.676037 -0.062283
v 0.401422 -0.719825 -0.000000
v 0.495875 -0.678215 -0.130660
v 0.393486 -0.718864 -0.047222
v 0.284161 -0.748865 -0.000000
v 0.538180 -0.627891 -0.282062
v 0.281394 -0.747085 -0.038053
v -0.004818 -0.771979 0.000000
v 0.379106 -0.719084 -0.105813
v 0.456087 -0.683524 -0.246612
v 0.273300 -0.748031 -0.077735
v 0.345846 -0.723036 -0.186816
v 0.245836 -0.749556 -0.129713
v 0.288045 -0.732926 -0.275335
v 0.374693 -0.690947 -0.364457
v 0.190755 -0.755364 -0.192654
v 0.155235 -0.734891 -0.365520
v 0.440021 -0.635145 -0.432132
v 0.107001 -0.754879 -0.248068
v 0.203124 -0.695756 -0.481892
v -0.003317 -0.736875 -0.394134
v -0.002276 -0.698010 -0.518891
v -0.004193 -0.756813 -0.268250
v -0.205613 -0.696511 -0.482084
v -0.161520 -0.736267 -0.362412
v -0.116906 -0.758386 -0.245436
v -0.210202 -0.757443 -0.182446
v -0.293544 -0.734071 -0.273013
v -0.272377 -0.757105 -0.087853
v -0.294319 -0.756253 0.000000
v -0.380341 -0.731618 -0.137037
v -0.410100 -0.729517 0.000000
v -0.522575 -0.680526 0.000000
v -0.488152 -0.684548 -0.189224
v -0.603838 -0.620690 0.000000
v -0.376059 -0.689526 -0.367243
v -0.567587 -0.623812 -0.229448
v -0.657712 -0.554270 0.000000
v -0.439340 -0.630781 -0.441596
v -0.620028 -0.553171 -0.258170
v -0.705625 -0.454815 0.000000
v -0.239851 -0.641894 -0.580093
v -0.660843 -0.456258 -0.287833
v -0.734019 -0.348939 0.000000
v -0.483651 -0.557060 -0.495607
v -0.686091 -0.348852 -0.303938
v -0.517383 -0.464349 -0.530342
v -0.271029 -0.574524 -0.642897
v -0.691450 -0.276206 -0.302320
v -0.740948 -0.274190 0.000000
v -0.287602 -0.482950 -0.688654
v -0.666949 -0.147815 -0.278491
v -0.716659 -0.143101 0.000000
v -0.543378 -0.288595 -0.545222
v -0.626314 -0.044853 -0.236988
v -0.666510 -0.037155 0.000000
v -0.526204 -0.151767 -0.512006
v -0.490908 -0.044888 -0.464946
v -0.561741 0.034507 -0.200725
v -0.607173 0.027978 0.000000
v -0.506770 0.110963 0.000000
v -0.440584 0.039913 -0.399497
v -0.469517 0.117872 -0.158414
v -0.358921 0.201265 0.000000
v -0.370960 0.123127 -0.322479
v -0.333607 0.207275 -0.106946
v -0.153580 0.316835 0.000000
v -0.265611 0.212932 -0.220866
v -0.209077 0.143080 -0.427602
v -0.143299 0.319803 -0.038994
v -0.105088 0.366144 0.000000
v -0.115576 0.321313 -0.086599
v -0.087364 0.369058 -0.038942
v -0.060536 0.416562 -0.021190
v -0.066859 0.413566 0.000000
v -0.034924 0.473553 0.000000
v -0.049266 0.372175 -0.078532
v -0.031832 0.474449 -0.010292
v -0.072151 0.321715 -0.121094
v -0.035171 0.419192 -0.046438
v -0.155533 0.224338 -0.300364
v 0.001407 0.313742 -0.150169
v -0.001616 0.369175 -0.092919
v -0.025491 0.475118 -0.016543
v -0.005217 0.419431 -0.052966
v -0.022264 0.493746 -0.006708
v -0.024279 0.493552 0.000000
v -0.010584 0.493720 0.000000
v -0.017485 0.493676 -0.009371
v -0.013592 0.493636 -0.007613
v -0.014418 0.475126 -0.020164
v 0.005445 0.472425 -0.005077
v 0.007902 0.472140 -0.000000
v -0.004030 0.474764 -0.016781
v 0.002988 0.472710 -0.010154
v 0.024655 0.418114 -0.044657
v 0.052729 0.409937 -0.017885
v 0.047325 0.363395 -0.085500
v 0.058044 0.408674 -0.008943
v 0.063359 0.407411 -0.000000
v 0.096190 0.350923 -0.056776
v 0.124714 0.340211 -0.013688
v 0.129937 0.339149 -0.000000
v 0.113887 0.344716 -0.037324
v 0.192701 0.288456 -0.026832
v 0.200253 0.286839 -0.000000
v 0.179543 0.293515 -0.063613
v 0.348595 0.201174 -0.071051
v 0.364731 0.199874 -0.000000
v 0.146029 0.297400 -0.101009
v 0.324869 0.204159 -0.148601
v 0.481068 0.123012 -0.114775
v 0.492282 0.121517 -0.000000
v 0.590010 0.042786 -0.000000
v 0.577986 0.040736 -0.141382
v 0.435251 0.127290 -0.227862
v 0.264953 0.205189 -0.248701
v 0.630568 -0.033570 -0.154767
v 0.522462 0.041763 -0.297633
v 0.344759 0.131123 -0.353854
v 0.565756 -0.032616 -0.330562
v 0.615970 -0.133579 -0.359193
v 0.409576 0.050236 -0.432911
v 0.449723 -0.031640 -0.484131
v 0.645279 -0.255296 -0.366577
v 0.490114 -0.144154 -0.523451
v 0.251240 -0.033115 -0.613193
v 0.275280 -0.157283 -0.674158
v 0.518800 -0.272084 -0.552517
v 0.296412 -0.284340 -0.701133
v 0.654106 -0.338404 -0.369772
v 0.639960 -0.452697 -0.348880
v 0.527698 -0.355700 -0.553388
v 0.594811 -0.559399 -0.315314
v 0.514829 -0.460611 -0.536309
v 0.485469 -0.561805 -0.490845
v 0.297773 -0.370605 -0.701214
v 0.292670 -0.478481 -0.679403
v 0.240128 -0.641705 -0.573105
v 0.262362 -0.578062 -0.635425
v -0.001285 -0.643745 -0.619546
v 0.000731 -0.578875 -0.687847
v 0.000962 -0.483865 -0.738361
v 0.000502 -0.379999 -0.762635
v -0.296094 -0.383943 -0.707751
v 0.000422 -0.298136 -0.764853
v -0.537825 -0.363926 -0.546033
v -0.298584 -0.301804 -0.706444
v -0.289930 -0.150862 -0.664787
v -0.001754 -0.151322 -0.727805
v -0.273948 -0.031462 -0.603667
v -0.246395 0.059753 -0.524089
v -0.006462 -0.025498 -0.665103
v 0.222982 0.054887 -0.548635
v -0.010042 0.068342 -0.579565
v 0.184748 0.131108 -0.454359
v -0.010817 0.150129 -0.476186
v 0.136395 0.210275 -0.327334
v -0.008433 0.224221 -0.343527
v 0.065540 0.308600 -0.142596
vn 0.7809 0.4037 0.4767
vn 0.7330 0.4240 0.5319
vn 0.6944 0.2086 0.6887
vn 0.7816 0.4361 0.4459
vn 0.7132 0.5752 0.4006
vn 0.8074 0.4346 0.3991
vn 0.8205 0.4419 0.3626
vn 0.8832 0.3206 0.3424
vn 0.9163 0.2577 0.3065
vn 0.9231 0.2562 0.2868
vn 0.9135 0.2754 0.2994
vn 0.8965 0.1835 0.4032
vn 0.8856 0.1881 0.4246
vn 0.8736 0.1892 0.4484
vn 0.8601 0.2174 0.4614
vn 0.8574 0.2070 0.4712
vn 0.8125 0.2928 0.5041
vn 0.8861 0.1063 0.4511
vn 0.7809 0.4037 -0.4767
vn 0.6944 0.2086 -0.6887
vn 0.7330 0.4240 -0.5319
vn 0.7816 0.4361 -0.4459
vn 0.7132 0.5752 -0.4006
vn 0.8074 0.4346 -0.3991
vn 0.8205 0.4419 -0.3626
vn 0.8832 0.3206 -0.3424
vn 0.9163 0.2577 -0.3065
vn 0.9231 0.2562 -0.2868
vn 0.9135 0.2754 -0.2994
vn 0.8965 0.1835 -0.4032
vn 0.8856 0.1881 -0.4246
vn 0.8736 0.1892 -0.4484
vn 0.8601 0.2174 -0.4614
vn 0.8574 0.2070 -0.4712
vn 0.8125 0.2928 -0.5041
vn 0.8861 0.1063 -0.4511
vn 0.8431 0.3265 0.4274
vn 0.8053 0.4761 0.3533
vn 0.7856 0.4717 0.4004
vn 0.7694 0.4563 0.4470
vn 0.7600 0.4023 0.5104
vn 0.7523 0.3376 0.5658
vn 0.7557 0.3095 0.5772
vn 0.8431 0.3265 0.4273
vn 0.8716 0.1566 0.4645
vn 0.8851 0.1561 0.4384
vn 0.8954 0.1678 0.4125
vn 0.9094 0.2246 0.3501
vn 0.9117 0.2882 0.2930
vn 0.8963 0.3489 0.2736
vn 0.8731 0.4096 0.2644
vn 0.8627 0.4293 0.2674
vn 0.8501 0.4450 0.2814
vn 0.8274 0.4653 0.3146
vn 0.8053 0.4761 0.3532
vn 0.7650 0.2814 0.5793
vn 0.7858 0.2414 0.5695
vn 0.8101 0.2050 0.5492
vn 0.8412 0.1763 0.5111
vn 0.8431 0.3265 -0.4273
vn 0.8963 0.3489 -0.2736
vn 0.9117 0.2882 -0.2930
vn 0.9094 0.2246 -0.3501
vn 0.8954 0.1678 -0.4125
vn 0.8851 0.1561 -0.4384
vn 0.8716 0.1566 -0.4645
vn 0.8431 0.3265 -0.4274
vn 0.7557 0.3095 -0.5772
vn 0.7523 0.3376 -0.5658
vn 0.7600 0.4023 -0.5104
vn 0.7694 0.4563 -0.4470
vn 0.7856 0.4717 -0.4004
vn 0.8053 0.4761 -0.3533
vn 0.8053 0.4761 -0.3532
vn 0.8274 0.4653 -0.3146
vn 0.8501 0.4450 -0.2814
vn 0.8627 0.4293 -0.2674
vn 0.8731 0.4096 -0.2644
vn 0.8412 0.1763 -0.5111
vn 0.8101 0.2050 -0.5492
vn 0.7858 0.2414 -0.5695
vn 0.7650 0.2814 -0.5793
vn -0.6850 0.1735 -0.7076
vn 0.0475 0.9693 -0.2414
vn 0.6131 0.2549 -0.7477
vn -0.5410 0.6155 0.5731
vn 0.6146 0.5281 -0.5860
vn -0.9177 0.1674 -0.3604
vn -0.6135 0.3586 0.7036
vn -0.6703 0.0129 0.7419
vn -0.5748 0.3044 -0.7596
vn -0.9341 0.0110 -0.3568
vn -0.6249 -0.3585 0.6935
vn -0.5629 -0.5304 0.6339
vn -0.5862 0.3634 -0.7240
vn 0.5337 0.7115 -0.4571
vn 0.3902 0.8312 -0.3961
vn -0.8942 -0.1844 -0.4079
vn -0.5478 0.5489 0.6314
vn -0.5604 0.3314 -0.7590
vn 0.3471 0.8667 -0.3582
vn 0.3723 0.8314 -0.4125
vn -0.8284 -0.1859 -0.5284
vn -0.4948 0.2865 -0.8204
vn 0.4747 0.7129 -0.5161
vn 0.5718 0.5006 -0.6499
vn -0.7844 -0.0128 -0.6201
vn -0.8524 0.0554 -0.5200
vn -0.4376 0.1352 -0.8890
vn 0.6292 0.2301 -0.7424
vn -0.8364 0.0428 -0.5464
vn -0.4426 -0.0422 -0.8957
vn 0.6435 0.0342 -0.7647
vn 0.6147 -0.2658 -0.7426
vn -0.7460 0.0022 -0.6660
vn -0.5119 -0.2446 -0.8235
vn 0.5464 -0.5034 -0.6694
vn 0.3891 -0.7648 -0.5136
vn 0.1891 -0.9424 -0.2761
vn -0.6877 -0.3476 -0.6374
vn -0.0858 -0.9953 0.0447
vn -0.7836 -0.3031 -0.5424
vn -0.3293 -0.8969 0.2952
vn -0.8773 -0.2640 -0.4008
vn -0.4832 -0.7256 0.4900
vn -0.5887 -0.4769 0.6527
vn -0.4832 -0.7120 0.5095
vn -0.7940 -0.0136 -0.6078
vn -0.8790 -0.2636 -0.3973
vn -0.7528 0.0456 -0.6567
vn -0.7318 0.1638 -0.6615
vn -0.7437 0.2916 -0.6015
vn -0.8631 -0.2786 -0.4212
vn -0.3466 -0.9000 0.2643
vn -0.5024 -0.7062 0.4988
vn -0.6021 -0.5345 0.5931
vn -0.8682 0.1473 -0.4739
vn 0.1483 0.9741 -0.1709
vn -0.6619 -0.3609 0.6570
vn -0.3335 0.8790 0.3408
vn -0.7015 0.0216 0.7124
vn -0.6850 0.1735 0.7076
vn 0.6131 0.2549 0.7477
vn 0.0475 0.9693 0.2414
vn -0.5410 0.6155 -0.5732
vn 0.6146 0.5281 0.5860
vn -0.9177 0.1674 0.3604
vn -0.6135 0.3585 -0.7036
vn -0.6703 0.0128 -0.7419
vn -0.5748 0.3044 0.7596
vn -0.9341 0.0110 0.3568
vn -0.6249 -0.3585 -0.6935
vn -0.5629 -0.5304 -0.6339
vn -0.5862 0.3634 0.7240
vn 0.5338 0.7115 0.4571
vn 0.3902 0.8311 0.3962
vn -0.8942 -0.1844 0.4079
vn -0.5478 0.5488 -0.6315
vn -0.5604 0.3314 0.7590
vn 0.3471 0.8667 0.3582
vn 0.3722 0.8314 0.4125
vn -0.8284 -0.1859 0.5284
vn -0.4948 0.2865 0.8204
vn 0.4747 0.7130 0.5161
vn 0.5718 0.5007 0.6499
vn -0.7844 -0.0128 0.6201
vn -0.8524 0.0554 0.5200
vn -0.8364 0.0428 0.5464
vn -0.4376 0.1352 0.8890
vn 0.6292 0.2301 0.7424
vn -0.7460 0.0022 0.6660
vn -0.4426 -0.0422 0.8957
vn 0.6435 0.0343 0.7647
vn 0.6147 -0.2657 0.7426
vn -0.5119 -0.2446 0.8235
vn 0.5464 -0.5034 0.6694
vn 0.3891 -0.7647 0.5136
vn 0.1890 -0.9424 0.2760
vn -0.6877 -0.3476 0.6374
vn -0.0858 -0.9953 -0.0446
vn -0.7836 -0.3031 0.5424
vn -0.3293 -0.8969 -0.2952
vn -0.8773 -0.2640 0.4008
vn -0.4831 -0.7256 -0.4899
vn -0.5887 -0.4769 -0.6527
vn -0.4832 -0.7120 -0.5094
vn -0.7940 -0.0136 0.6078
vn -0.8790 -0.2636 0.3973
vn -0.7528 0.0456 0.6567
vn -0.7318 0.1638 0.6615
vn -0.7437 0.2916 0.6015
vn -0.8631 -0.2786 0.4212
vn -0.3466 -0.9000 -0.2643
vn -0.5024 -0.7062 -0.4988
vn -0.6021 -0.5345 -0.5931
vn -0.8682 0.1473 0.4739
vn 0.1483 0.9741 0.1709
vn -0.6619 -0.3609 -0.6570
vn -0.3336 0.8789 -0.3409
vn -0.7015 0.0215 -0.7124
vn 0.6291 0.2301 -0.7425
vn 0.5717 0.5007 -0.6500
vn 0.9316 0.1639 0.3246
vn 0.6435 0.0343 -0.7647
vn 0.4746 0.7130 -0.5162
vn 0.9489 -0.0580 0.3101
vn 0.6147 -0.2657 -0.7427
vn 0.8584 0.3132 0.4063
vn 0.3721 0.8315 -0.4125
vn 0.3470 0.8667 -0.3583
vn 0.8740 -0.2758 0.4002
vn 0.3891 -0.7647 -0.5137
vn 0.1890 -0.9424 -0.2761
vn 0.7480 -0.0188 0.6635
vn 0.7584 -0.3598 0.5435
vn -0.0858 -0.9953 0.0446
vn 0.6339 -0.3866 0.6698
vn 0.7484 -0.0187 0.6630
vn 0.4648 -0.2920 0.8359
vn -0.4832 -0.7256 0.4899
vn -0.5888 -0.4769 0.6526
vn 0.5638 -0.1475 0.8126
vn -0.4832 -0.7120 0.5094
vn 0.7160 0.0207 0.6978
vn 0.5483 -0.3209 0.7723
vn -0.3465 -0.9000 0.2643
vn 0.7103 0.0062 0.7039
vn 0.5075 -0.2561 0.8227
vn -0.6021 -0.5346 0.5931
vn 0.7444 0.1207 0.6568
vn 0.6167 -0.0380 0.7863
vn 0.5195 0.1084 0.8475
vn -0.7014 0.0215 0.7124
vn -0.3335 0.8789 0.3409
vn 0.1483 0.9741 -0.1710
vn 0.6906 0.2369 0.6833
vn -0.5478 0.5488 0.6314
vn 0.6025 0.0819 0.7939
vn 0.4990 -0.1089 0.8597
vn -0.5629 -0.5305 0.6338
vn -0.6249 -0.3585 0.6936
vn 0.6494 -0.0952 0.7545
vn 0.4991 0.0579 0.8646
vn -0.6703 0.0128 0.7420
vn 0.7984 0.3779 0.4688
vn 0.3902 0.8311 -0.3962
vn 0.7825 0.3514 0.5140
vn 0.5337 0.7114 -0.4572
vn 0.8037 0.2852 0.5222
vn 0.6145 0.5281 -0.5861
vn 0.7425 0.2907 0.6036
vn 0.6131 0.2550 -0.7477
vn -0.5410 0.6155 0.5732
vn 0.6291 0.2300 0.7425
vn 0.9316 0.1639 -0.3246
vn 0.5717 0.5006 0.6500
vn 0.6435 0.0342 0.7647
vn 0.4746 0.7129 0.5162
vn 0.9489 -0.0580 -0.3101
vn 0.6146 -0.2658 0.7427
vn 0.8584 0.3132 -0.4063
vn 0.3722 0.8314 0.4126
vn 0.3470 0.8667 0.3583
vn 0.7480 -0.0188 -0.6635
vn 0.8740 -0.2758 -0.4002
vn 0.3890 -0.7648 0.5136
vn 0.1890 -0.9424 0.2761
vn 0.7584 -0.3598 -0.5435
vn 0.6339 -0.3866 -0.6698
vn 0.7484 -0.0187 -0.6630
vn 0.4648 -0.2920 -0.8359
vn -0.4833 -0.7256 -0.4899
vn -0.5888 -0.4769 -0.6526
vn 0.5638 -0.1475 -0.8126
vn 0.7160 0.0207 -0.6978
vn 0.5483 -0.3209 -0.7723
vn -0.3465 -0.9000 -0.2643
vn 0.7103 0.0062 -0.7039
vn 0.5075 -0.2561 -0.8227
vn -0.5024 -0.7062 -0.4989
vn 0.7444 0.1207 -0.6568
vn 0.6167 -0.0380 -0.7863
vn 0.5195 0.1084 -0.8475
vn -0.6619 -0.3608 -0.6570
vn -0.7014 0.0216 -0.7124
vn -0.3335 0.8789 -0.3409
vn 0.1482 0.9741 0.1709
vn 0.6906 0.2369 -0.6833
vn -0.5478 0.5489 -0.6314
vn 0.6025 0.0819 -0.7939
vn 0.4990 -0.1089 -0.8597
vn -0.5629 -0.5304 -0.6338
vn -0.6249 -0.3585 -0.6936
vn 0.6494 -0.0952 -0.7545
vn 0.4991 0.0579 -0.8646
vn -0.6703 0.0129 -0.7420
vn -0.6134 0.3586 -0.7036
vn 0.7825 0.3514 -0.5140
vn 0.7984 0.3779 -0.4688
vn 0.3901 0.8312 0.3961
vn 0.5337 0.7115 0.4571
vn 0.8037 0.2852 -0.5222
vn 0.6145 0.5281 0.5861
vn 0.7425 0.2907 -0.6036
vn 0.6131 0.2550 0.7477
vn -0.5409 0.6155 -0.5732
vn 0.0474 0.9693 0.2413
vn 0.9951 0.0291 0.0944
vn 0.9917 -0.1289 -0.0000
vn 0.9992 0.0399 -0.0000
vn 0.8261 0.5636 -0.0000
vn 0.9829 -0.1370 0.1234
vn 0.9520 -0.3062 -0.0000
vn 0.7713 0.6353 0.0370
vn 0.3433 0.9392 -0.0000
vn 0.9915 0.0370 0.1246
vn 0.2969 0.9544 -0.0310
vn 0.3319 0.9433 -0.0000
vn 0.7901 0.6123 -0.0292
vn 0.3687 0.9281 -0.0528
vn 0.6973 0.7168 -0.0000
vn 0.3429 0.9197 -0.1914
vn 0.7190 0.6885 -0.0944
vn 0.5654 0.7668 -0.3040
vn 0.9651 0.2342 -0.1169
vn 0.9697 0.2444 -0.0000
vn 0.6882 0.6798 -0.2535
vn 0.9721 -0.1771 -0.1535
vn 0.9864 -0.1646 -0.0000
vn 0.9170 0.2546 -0.3070
vn 0.9550 -0.1037 -0.2780
vn 0.8659 -0.4774 -0.1493
vn 0.8537 -0.5207 -0.0000
vn 0.7219 -0.6920 -0.0000
vn 0.9089 -0.2264 -0.3501
vn 0.7432 -0.6573 -0.1250
vn 0.9571 -0.2897 -0.0000
vn 0.8138 -0.4903 -0.3119
vn 0.8231 0.2928 -0.4866
vn 0.8440 -0.2841 -0.4549
vn 0.9755 -0.1807 -0.1258
vn 0.9585 -0.2841 -0.0215
vn 0.9448 0.3151 0.0897
vn 0.9418 0.3362 -0.0000
vn 0.8706 0.4920 -0.0000
vn 0.9534 0.2811 0.1091
vn 0.8867 0.4476 0.1157
vn 0.8305 0.5570 -0.0000
vn 0.9598 0.2546 0.1180
vn 0.9761 -0.0362 -0.2141
vn 0.9759 0.1056 -0.1911
vn 0.8860 0.3843 0.2595
vn 0.8089 -0.0158 -0.5877
vn 0.9569 0.2302 0.1770
vn 0.9431 0.2115 -0.2566
vn 0.7355 0.2288 -0.6377
vn 0.6586 0.5382 -0.5259
vn 0.9761 0.1464 0.1605
vn 0.9387 0.3026 -0.1652
vn 0.9488 0.1448 0.2808
vn 0.9828 0.0440 0.1791
vn 0.8767 0.4724 -0.0909
vn 0.5261 0.7693 -0.3625
vn 0.9827 0.0357 0.1816
vn 0.9810 -0.1011 0.1656
vn 0.9659 -0.0605 0.2519
vn 0.9485 -0.2963 0.1118
vn 0.9317 -0.2913 0.2171
vn 0.8232 -0.5650 0.0560
vn 0.8233 -0.5676 -0.0000
vn 0.8179 -0.5502 0.1683
vn 0.6382 -0.7686 0.0439
vn 0.6500 -0.7599 -0.0000
vn 0.4701 -0.8826 -0.0000
vn 0.6224 -0.7752 0.1085
vn 0.4533 -0.8905 0.0388
vn 0.3034 -0.9529 -0.0000
vn 0.4330 -0.8983 0.0749
vn 0.2889 -0.9553 0.0629
vn 0.1634 -0.9866 -0.0000
vn 0.5812 -0.7734 0.2531
vn 0.1686 -0.9850 0.0371
vn 0.0129 -0.9999 -0.0000
vn 0.2807 -0.9577 0.0630
vn 0.4059 -0.9006 0.1556
vn 0.1703 -0.9849 0.0299
vn 0.2681 -0.9610 0.0683
vn 0.1509 -0.9878 0.0379
vn 0.2095 -0.9666 0.1474
vn 0.3247 -0.9039 0.2784
vn 0.1014 -0.9927 0.0653
vn 0.1024 -0.9708 0.2170
vn 0.0480 -0.9933 0.1055
vn 0.4670 -0.7827 0.4115
vn 0.1706 -0.9149 0.3657
vn 0.0025 -0.9721 0.2347
vn 0.7453 -0.5721 0.3424
vn 0.0109 -0.9933 0.1150
vn 0.8582 -0.3207 0.4009
vn 0.5952 -0.5811 0.5551
vn 0.2502 -0.7972 0.5495
vn 0.8940 -0.0367 0.4465
vn 0.0073 -0.8026 0.5965
vn 0.6708 -0.3269 0.6657
vn 0.3144 -0.5938 0.7406
vn 0.3752 -0.3348 0.8644
vn 0.6993 -0.0590 0.7124
vn 0.3844 -0.0960 0.9182
vn 0.6770 0.1883 0.7115
vn 0.8680 0.1721 0.4659
vn 0.3871 0.1316 0.9126
vn 0.8069 0.3614 0.4671
vn 0.6353 0.3648 0.6807
vn 0.3555 0.3534 0.8653
vn 0.5697 0.5377 0.6216
vn 0.7322 0.5454 0.4080
vn 0.8191 0.5438 0.1827
vn 0.4863 0.7015 0.5210
vn 0.7137 0.6823 0.1586
vn 0.7278 0.6857 -0.0000
vn 0.6433 0.6840 0.3441
vn 0.5626 0.8178 0.1213
vn 0.5794 0.8150 -0.0000
vn 0.4859 0.8740 -0.0000
vn 0.5095 0.8244 0.2466
vn 0.4750 0.8744 0.0994
vn 0.5245 0.8514 -0.0000
vn 0.4468 0.8761 0.1811
vn 0.3916 0.8259 0.4056
vn 0.3448 0.8835 0.3170
vn 0.5319 0.8422 0.0880
vn 0.6407 0.7678 -0.0000
vn 0.4873 0.8528 0.1879
vn 0.6404 0.7494 0.1681
vn 0.7256 0.6881 -0.0000
vn 0.3908 0.8489 0.3558
vn 0.6161 0.7507 0.2386
vn 0.6909 0.6519 0.3125
vn 0.7605 0.6493 -0.0000
vn 0.5326 0.7332 0.4228
vn 0.7231 0.6148 0.3149
vn 0.4943 0.8693 -0.0000
vn 0.6520 0.6432 0.4015
vn 0.3670 0.8427 0.3938
vn 0.6885 0.5965 0.4126
vn 0.3563 0.7020 0.6166
vn 0.4608 0.6085 0.6461
vn 0.4741 0.5660 0.6745
vn 0.2489 0.8365 0.4882
vn 0.0109 0.6781 0.7348
vn 0.2047 0.8808 0.4270
vn 0.0073 0.8348 0.5505
vn -0.0015 0.8883 0.4593
vn 0.2205 0.8262 0.5183
vn -0.0116 0.8286 0.5597
vn 0.2678 0.7132 0.6478
vn -0.0254 0.7289 0.6841
vn 0.3223 0.5412 0.7767
vn -0.0170 0.5555 0.8313
vn -0.0080 0.3473 0.9377
vn -0.3027 0.7259 0.6175
vn -0.3358 0.5666 0.7525
vn 0.0037 0.1115 0.9938
vn -0.3580 0.3634 0.8601
vn 0.0129 -0.1246 0.9921
vn -0.5965 0.5756 0.5593
vn 0.0148 -0.3461 0.9381
vn -0.3801 -0.1070 0.9187
vn 0.0115 -0.5964 0.8026
vn -0.3661 -0.3390 0.8666
vn -0.3273 -0.5937 0.7351
vn -0.2454 -0.8003 0.5471
vn -0.6166 -0.5694 0.5437
vn -0.6904 -0.3500 0.6331
vn -0.3747 0.1314 0.9178
vn -0.7164 -0.1432 0.6828
vn -0.6676 0.3617 0.6507
vn -0.7115 0.1026 0.6952
vn -0.9265 -0.1580 0.3416
vn -0.9334 0.0866 0.3481
vn -0.8825 -0.3515 0.3125
vn -0.9851 -0.1723 -0.0000
vn -0.9987 0.0500 0.0001
vn -0.9391 -0.3436 -0.0000
vn -0.8790 0.3411 0.3331
vn -0.9526 0.3043 -0.0000
vn -0.7960 -0.5413 0.2708
vn -0.8476 -0.5306 -0.0000
vn -0.7773 0.5612 0.2843
vn -0.8344 0.5512 0.0001
vn -0.5191 0.7296 0.4453
vn -0.6491 0.7226 0.2376
vn -0.6957 0.7183 -0.0000
vn -0.5891 0.8081 -0.0000
vn -0.2757 0.8200 0.5016
vn -0.4563 0.8114 0.3652
vn -0.5545 0.8100 0.1908
vn -0.5105 0.8599 -0.0000
vn -0.4022 0.8652 0.2996
vn -0.2416 0.8788 0.4116
vn -0.4840 0.8620 0.1509
vn -0.5904 0.8071 -0.0000
vn -0.2668 0.8091 0.5235
vn -0.5630 0.8040 0.1913
vn -0.7304 0.6830 0.0001
vn -0.4541 0.8116 0.3675
vn -0.6464 0.6569 0.3880
vn -0.3770 0.6643 0.6454
vn -0.4226 0.5457 0.7236
vn -0.7487 0.5314 0.3962
vn -0.8251 0.5650 0.0001
vn -0.8795 0.4759 -0.0000
vn 0.0363 0.5769 0.8160
vn -0.4776 0.4607 0.7481
vn 0.0037 0.5090 0.8607
vn -0.7756 0.4645 0.4274
vn -0.0280 0.8129 0.5818
vn -0.4596 0.8140 0.3551
vn -0.5867 0.8098 -0.0000
vn 0.0030 -0.9184 0.3956
vn -0.1724 -0.9175 0.3583
vn -0.4883 -0.7669 0.4166
vn -0.1059 -0.9693 0.2217
vn -0.3378 -0.8967 0.2859
vn -0.6453 -0.7318 0.2193
vn -0.6959 -0.7182 -0.0000
vn -0.4564 -0.8765 0.1533
vn -0.5056 -0.8628 -0.0000
vn -0.2084 -0.9617 0.1781
vn -0.2846 -0.9536 0.0985
vn -0.3249 -0.9457 -0.0000
vn -0.1497 -0.9887 -0.0000
vn -0.0460 -0.9927 0.1118
vn -0.0998 -0.9914 0.0852
vn -0.1309 -0.9901 0.0501
vn 0.9951 0.0291 -0.0944
vn 0.9992 0.0398 -0.0000
vn 0.9829 -0.1370 -0.1234
vn 0.7713 0.6353 -0.0370
vn 0.9915 0.0370 -0.1246
vn 0.2969 0.9544 0.0310
vn 0.7901 0.6123 0.0292
vn 0.3687 0.9281 0.0528
vn 0.3429 0.9197 0.1914
vn 0.7190 0.6885 0.0944
vn 0.5654 0.7668 0.3040
vn 0.9651 0.2342 0.1169
vn 0.6882 0.6798 0.2535
vn 0.9170 0.2546 0.3070
vn 0.5261 0.7693 0.3625
vn 0.9721 -0.1771 0.1535
vn 0.9550 -0.1037 0.2780
vn 0.8659 -0.4774 0.1493
vn 0.9089 -0.2264 0.3501
vn 0.7432 -0.6573 0.1250
vn 0.8138 -0.4903 0.3119
vn 0.8231 0.2928 0.4866
vn 0.8440 -0.2841 0.4549
vn 0.9755 -0.1807 0.1258
vn 0.9585 -0.2841 0.0215
vn 0.9448 0.3151 -0.0897
vn 0.9534 0.2811 -0.1091
vn 0.8867 0.4476 -0.1157
vn 0.9598 0.2546 -0.1180
vn 0.9761 -0.0362 0.2141
vn 0.9759 0.1056 0.1911
vn 0.8860 0.3843 -0.2595
vn 0.8089 -0.0158 0.5877
vn 0.9569 0.2302 -0.1770
vn 0.9431 0.2115 0.2566
vn 0.7355 0.2288 0.6377
vn 0.6586 0.5382 0.5259
vn 0.9387 0.3026 0.1652
vn 0.8767 0.4724 0.0909
vn 0.9827 0.0357 -0.1816
vn 0.9761 0.1464 -0.1605
vn 0.9828 0.0440 -0.1791
vn 0.9810 -0.1011 -0.1656
vn 0.9488 0.1448 -0.2808
vn 0.9659 -0.0605 -0.2519
vn 0.9485 -0.2963 -0.1118
vn 0.9317 -0.2913 -0.2171
vn 0.8232 -0.5650 -0.0560
vn 0.8179 -0.5502 -0.1683
vn 0.6382 -0.7686 -0.0439
vn 0.6224 -0.7752 -0.1085
vn 0.4533 -0.8905 -0.0388
vn 0.4330 -0.8983 -0.0749
vn 0.2889 -0.9553 -0.0629
vn 0.5812 -0.7734 -0.2531
vn 0.1686 -0.9850 -0.0371
vn 0.2807 -0.9577 -0.0630
vn 0.4059 -0.9006 -0.1556
vn 0.1703 -0.9849 -0.0299
vn 0.2681 -0.9610 -0.0683
vn 0.1509 -0.9878 -0.0379
vn 0.2095 -0.9666 -0.1474
vn 0.3247 -0.9039 -0.2784
vn 0.1014 -0.9927 -0.0653
vn 0.1024 -0.9708 -0.2170
vn 0.4670 -0.7827 -0.4115
vn 0.0480 -0.9933 -0.1055
vn 0.1706 -0.9149 -0.3657
vn 0.0025 -0.9721 -0.2347
vn 0.0030 -0.9184 -0.3956
vn 0.0109 -0.9933 -0.1150
vn -0.1724 -0.9175 -0.3583
vn -0.1059 -0.9693 -0.2217
vn -0.0460 -0.9927 -0.1118
vn -0.0998 -0.9914 -0.0852
vn -0.2084 -0.9617 -0.1781
vn -0.1309 -0.9901 -0.0501
vn -0.2846 -0.9536 -0.0985
vn -0.4564 -0.8765 -0.1533
vn -0.3378 -0.8967 -0.2859
vn -0.6453 -0.7318 -0.2193
vn -0.4883 -0.7669 -0.4166
vn -0.7960 -0.5413 -0.2708
vn -0.2454 -0.8003 -0.5471
vn -0.8825 -0.3515 -0.3125
vn -0.6166 -0.5694 -0.5437
vn -0.9265 -0.1580 -0.3416
vn -0.6904 -0.3500 -0.6331
vn -0.3273 -0.5937 -0.7351
vn -0.9334 0.0866 -0.3481
vn -0.9987 0.0500 -0.0001
vn -0.3661 -0.3390 -0.8666
vn -0.8790 0.3411 -0.3331
vn -0.7115 0.1026 -0.6952
vn -0.7773 0.5612 -0.2843
vn -0.8343 0.5512 -0.0001
vn -0.6676 0.3617 -0.6507
vn -0.5965 0.5756 -0.5593
vn -0.6491 0.7226 -0.2376
vn -0.5191 0.7296 -0.4453
vn -0.5545 0.8100 -0.1908
vn -0.4563 0.8114 -0.3652
vn -0.4840 0.8620 -0.1509
vn -0.4022 0.8652 -0.2996
vn -0.2757 0.8200 -0.5016
vn -0.5630 0.8040 -0.1913
vn -0.7304 0.6830 -0.0001
vn -0.4541 0.8116 -0.3675
vn -0.6464 0.6569 -0.3880
vn -0.7487 0.5314 -0.3962
vn -0.8251 0.5650 -0.0001
vn -0.3770 0.6643 -0.6454
vn -0.7756 0.4645 -0.4274
vn -0.2668 0.8091 -0.5235
vn -0.4226 0.5457 -0.7236
vn -0.2416 0.8788 -0.4116
vn 0.0073 0.8348 -0.5505
vn 0.0109 0.6781 -0.7348
vn -0.4776 0.4607 -0.7481
vn 0.0363 0.5769 -0.8160
vn -0.4596 0.8140 -0.3551
vn 0.4944 0.8693 -0.0000
vn -0.0280 0.8129 -0.5818
vn 0.3670 0.8427 -0.3938
vn 0.0037 0.5090 -0.8607
vn 0.7231 0.6148 -0.3149
vn 0.4741 0.5660 -0.6745
vn 0.6885 0.5965 -0.4126
vn 0.4608 0.6085 -0.6461
vn 0.6520 0.6432 -0.4015
vn 0.3563 0.7020 -0.6166
vn 0.6909 0.6519 -0.3125
vn 0.5326 0.7332 -0.4228
vn 0.6404 0.7494 -0.1681
vn 0.6161 0.7507 -0.2386
vn 0.5319 0.8422 -0.0880
vn 0.4873 0.8528 -0.1879
vn 0.4750 0.8744 -0.0994
vn 0.3908 0.8489 -0.3558
vn 0.4468 0.8761 -0.1811
vn 0.5626 0.8178 -0.1213
vn 0.7137 0.6823 -0.1586
vn 0.5095 0.8244 -0.2466
vn 0.3448 0.8835 -0.3170
vn 0.8191 0.5438 -0.1827
vn 0.6433 0.6840 -0.3441
vn 0.3916 0.8259 -0.4056
vn 0.7322 0.5454 -0.4080
vn 0.8069 0.3614 -0.4671
vn 0.4863 0.7015 -0.5210
vn 0.5697 0.5377 -0.6216
vn 0.8680 0.1721 -0.4659
vn 0.6353 0.3648 -0.6807
vn 0.3223 0.5412 -0.7767
vn 0.3555 0.3534 -0.8653
vn 0.6770 0.1883 -0.7115
vn 0.3871 0.1316 -0.9126
vn 0.8940 -0.0367 -0.4465
vn 0.8582 -0.3207 -0.4009
vn 0.6993 -0.0590 -0.7124
vn 0.7453 -0.5721 -0.3424
vn 0.6708 -0.3269 -0.6657
vn 0.5952 -0.5811 -0.5551
vn 0.3844 -0.0960 -0.9182
vn 0.3752 -0.3348 -0.8644
vn 0.2502 -0.7972 -0.5495
vn 0.3144 -0.5938 -0.7406
vn 0.0073 -0.8026 -0.5965
vn 0.0115 -0.5964 -0.8026
vn 0.0148 -0.3461 -0.9381
vn 0.0129 -0.1246 -0.9921
vn -0.3801 -0.1070 -0.9187
vn 0.0037 0.1115 -0.9938
vn -0.7164 -0.1432 -0.6828
vn -0.3747 0.1314 -0.9178
vn -0.3580 0.3634 -0.8601
vn -0.0080 0.3473 -0.9377
vn -0.3358 0.5666 -0.7525
vn -0.3027 0.7259 -0.6175
vn -0.0170 0.5555 -0.8313
vn 0.2678 0.7132 -0.6478
vn -0.0254 0.7289 -0.6841
vn 0.2205 0.8262 -0.5183
vn -0.0116 0.8286 -0.5597
vn 0.2047 0.8808 -0.4270
vn -0.0015 0.8883 -0.4593
vn 0.2489 0.8365 -0.4882
vt 0.039307 0.032227
vt 0.055359 0.014160
vt 0.050598 0.012695
vt 0.047821 0.038086
vt 0.058411 0.018066
vt 0.036865 0.038086
vt 0.042114 0.048340
vt 0.034180 0.042969
vt 0.036896 0.059082
vt 0.035156 0.060059
vt 0.033630 0.059570
vt 0.022720 0.046387
vt 0.028290 0.036133
vt 0.014603 0.035156
vt 0.022736 0.029297
vt 0.009735 0.013672
vt 0.014458 0.013184
vt 0.006092 0.016602
vt 0.967773 0.017090
vt 0.674805 0.014648
vt 0.686035 0.107422
vt 0.719238 0.194336
vt 0.786133 0.263672
vt 0.866699 0.312012
vt 0.979492 0.317383
vt 0.591309 0.972778
vt 0.568848 0.990120
vt 0.581055 0.965912
vt 0.603516 0.988144
vt 0.589355 0.945526
vt 0.625977 0.964142
vt 0.636719 0.981369
vt 0.656250 0.970322
vt 0.607910 0.948517
vt 0.645020 0.934753
vt 0.676270 0.945465
vt 0.682617 0.931519
vt 0.619629 0.905640
vt 0.590332 0.927124
vt 0.588867 0.909912
vt 0.653809 0.896423
vt 0.687988 0.911926
vt 0.615234 0.845459
vt 0.580078 0.860352
vt 0.575684 0.825562
vt 0.648926 0.861816
vt 0.611328 0.797485
vt 0.575195 0.792114
vt 0.581543 0.762207
vt 0.645020 0.823853
vt 0.676270 0.876465
vt 0.618652 0.770752
vt 0.592773 0.742432
vt 0.665039 0.838867
vt 0.638184 0.749512
vt 0.606934 0.725098
vt 0.629883 0.708740
vt 0.666016 0.783569
vt 0.666016 0.738525
vt 0.651367 0.700684
vt 0.677246 0.696533
vt 0.710938 0.706787
vt 0.701172 0.751709
vt 0.737793 0.726318
vt 0.710938 0.767700
vt 0.751953 0.752197
vt 0.719727 0.790894
vt 0.757812 0.775269
vt 0.756836 0.797241
vt 0.752441 0.813354
vt 0.705566 0.810303
vt 0.719238 0.828247
vt 0.678711 0.811890
vt 0.689453 0.839233
vt 0.704590 0.876343
vt 0.735840 0.870972
vt 0.769043 0.845093
vt 0.774902 0.878418
vt 0.770508 0.906555
vt 0.733398 0.920776
vt 0.704102 0.933228
vt 0.763672 0.928040
vt 0.725098 0.967224
vt 0.747070 0.952789
vt 0.958008 0.734863
vt 0.969727 0.753906
vt 0.934570 0.762939
vt 0.942383 0.718018
vt 0.977539 0.783447
vt 0.912109 0.739746
vt 0.919434 0.702881
vt 0.897949 0.695557
vt 0.941895 0.800537
vt 0.979004 0.816772
vt 0.975586 0.851929
vt 0.880371 0.731201
vt 0.871582 0.697510
vt 0.837891 0.705566
vt 0.890137 0.778442
vt 0.855957 0.738770
vt 0.812988 0.726562
vt 0.835938 0.755615
vt 0.799316 0.753296
vt 0.860352 0.784180
vt 0.827637 0.778809
vt 0.795410 0.776733
vt 0.795898 0.798706
vt 0.840820 0.802979
vt 0.800293 0.814453
vt 0.875977 0.808472
vt 0.831055 0.829956
vt 0.788086 0.846802
vt 0.915039 0.818970
vt 0.819336 0.873901
vt 0.784180 0.879639
vt 0.789062 0.906982
vt 0.867188 0.837402
vt 0.895020 0.838379
vt 0.824707 0.922363
vt 0.796875 0.927063
vt 0.812988 0.950623
vt 0.833008 0.966614
vt 0.852051 0.932129
vt 0.853516 0.875732
vt 0.870605 0.912170
vt 0.881348 0.875610
vt 0.906250 0.904663
vt 0.877930 0.931335
vt 0.885742 0.944824
vt 0.911621 0.864624
vt 0.922852 0.937134
vt 0.908203 0.968170
vt 0.928223 0.977402
vt 0.938965 0.856445
vt 0.969238 0.902039
vt 0.937988 0.899353
vt 0.968750 0.919312
vt 0.941895 0.927551
vt 0.971680 0.937531
vt 0.961426 0.958618
vt 0.982910 0.956696
vt 0.962402 0.980835
vt 0.996582 0.980011
vt 0.200806 0.838135
vt 0.219238 0.860474
vt 0.197876 0.854248
vt 0.181885 0.848389
vt 0.223267 0.836304
vt 0.274170 0.870850
vt 0.186401 0.832642
vt 0.171143 0.843384
vt 0.200806 0.821045
vt 0.175781 0.827759
vt 0.157471 0.836914
vt 0.188354 0.815552
vt 0.163330 0.822754
vt 0.144409 0.830200
vt 0.178101 0.812866
vt 0.151245 0.817505
vt 0.165649 0.804688
vt 0.143188 0.812134
vt 0.134399 0.823730
vt 0.157227 0.808594
vt 0.135376 0.805786
vt 0.124878 0.815796
vt 0.150757 0.803467
vt 0.144287 0.799316
vt 0.127197 0.796021
vt 0.114990 0.805664
vt 0.102478 0.790894
vt 0.145142 0.789917
vt 0.117554 0.780884
vt 0.094543 0.781250
vt 0.136597 0.775024
vt 0.159912 0.793213
vt 0.149414 0.775146
vt 0.131958 0.765503
vt 0.110962 0.770630
vt 0.100891 0.755981
vt 0.082764 0.766724
vt 0.062195 0.737793
vt 0.124878 0.751831
vt 0.099243 0.726318
vt 0.041901 0.701660
vt 0.145020 0.753906
vt 0.148438 0.765747
vt 0.161255 0.770142
vt 0.147461 0.708740
vt 0.160034 0.779297
vt 0.166260 0.759277
vt 0.172607 0.779053
vt 0.167114 0.785034
vt 0.172241 0.790283
vt 0.179199 0.768555
vt 0.180908 0.787354
vt 0.190674 0.749512
vt 0.194092 0.784424
vt 0.186890 0.799561
vt 0.177002 0.799683
vt 0.202026 0.802612
vt 0.225586 0.809937
vt 0.228638 0.773315
vt 0.277588 0.834961
vt 0.283691 0.796753
vt 0.334229 0.833618
vt 0.336670 0.864136
vt 0.331299 0.804077
vt 0.384521 0.827271
vt 0.390137 0.853394
vt 0.442871 0.831421
vt 0.379150 0.801147
vt 0.435303 0.809204
vt 0.496582 0.797119
vt 0.428467 0.786011
vt 0.489014 0.781006
vt 0.542969 0.757568
vt 0.376709 0.751953
vt 0.534180 0.746582
vt 0.629395 0.658447
vt 0.481934 0.760498
vt 0.420654 0.742432
vt 0.527832 0.733643
vt 0.475098 0.729004
vt 0.523438 0.712158
vt 0.471924 0.688477
vt 0.421631 0.689697
vt 0.522461 0.679199
vt 0.486084 0.625977
vt 0.529785 0.637939
vt 0.381592 0.687988
vt 0.443848 0.613281
vt 0.519043 0.568848
vt 0.337402 0.751831
vt 0.553223 0.595215
vt 0.297607 0.740967
vt 0.347412 0.680176
vt 0.411377 0.602783
vt 0.252686 0.721436
vt 0.458984 0.525146
vt 0.313232 0.666992
vt 0.389648 0.594482
vt 0.360107 0.586670
vt 0.283936 0.654541
vt 0.335938 0.573486
vt 0.266357 0.641602
vt 0.223267 0.703857
vt 0.320801 0.564209
vt 0.185913 0.666260
vt 0.233032 0.614502
vt 0.293213 0.540527
vt 0.205078 0.583252
vt 0.154541 0.626953
vt 0.098694 0.675293
vt 0.182495 0.555664
vt 0.081543 0.632812
vt 0.030136 0.648438
vt 0.134521 0.601807
vt 0.062683 0.571533
vt 0.019318 0.579346
vt 0.021088 0.503906
vt 0.104492 0.550781
vt 0.049011 0.499512
vt 0.036255 0.421875
vt 0.079224 0.489746
vt 0.154663 0.516602
vt 0.121826 0.468750
vt 0.047516 0.419434
vt 0.043182 0.382324
vt 0.063538 0.411621
vt 0.049072 0.380371
vt 0.047394 0.341797
vt 0.082336 0.395996
vt 0.059784 0.374512
vt 0.051361 0.339844
vt 0.046906 0.306152
vt 0.070068 0.364258
vt 0.048981 0.305176
vt 0.046234 0.293457
vt 0.055603 0.335938
vt 0.048981 0.292969
vt 0.051056 0.303711
vt 0.086914 0.341309
vt 0.068909 0.321289
vt 0.053955 0.299805
vt 0.109009 0.362305
vt 0.099426 0.318359
vt 0.166748 0.422852
vt 0.125244 0.332520
vt 0.197266 0.366211
vt 0.206787 0.461914
vt 0.243042 0.390625
vt 0.236328 0.491211
vt 0.278809 0.411133
vt 0.260254 0.514648
vt 0.310791 0.431152
vt 0.345459 0.453125
vt 0.321289 0.327637
vt 0.358643 0.341309
vt 0.382812 0.476562
vt 0.396729 0.359863
vt 0.396484 0.484375
vt 0.400146 0.254883
vt 0.417969 0.498535
vt 0.454346 0.395020
vt 0.440186 0.512939
vt 0.474121 0.411133
vt 0.494385 0.429688
vt 0.510742 0.452637
vt 0.556152 0.360352
vt 0.532227 0.330078
vt 0.439209 0.384277
vt 0.506348 0.305176
vt 0.442139 0.268555
vt 0.486816 0.291504
vt 0.567871 0.223145
vt 0.534668 0.200684
vt 0.607910 0.261230
vt 0.643555 0.134766
vt 0.587402 0.097656
vt 0.696777 0.195801
vt 0.477051 0.174805
vt 0.501953 0.070312
vt 0.641113 0.306152
vt 0.732422 0.267578
vt 0.421387 0.157715
vt 0.421631 0.065918
vt 0.355957 0.245605
vt 0.365723 0.157227
vt 0.356689 0.078125
vt 0.285156 0.107910
vt 0.277588 0.315918
vt 0.302734 0.242676
vt 0.301758 0.168457
vt 0.211060 0.155762
vt 0.232300 0.247559
vt 0.219971 0.303711
vt 0.227173 0.195312
vt 0.133179 0.227539
vt 0.135010 0.294922
vt 0.139160 0.242676
vt 0.106445 0.249512
vt 0.140869 0.267578
vt 0.110901 0.266602
vt 0.107483 0.293457
vt 0.084229 0.291992
vt 0.085693 0.275391
vt 0.083801 0.266602
vt 0.058716 0.281250
vt 0.078247 0.307129
vt 0.059021 0.289551
vt 0.057068 0.294922
vt 0.059784 0.285156
vt 0.050110 0.291016
vt 0.050873 0.289062
vt 0.049683 0.287109
vt 0.485596 0.544189
vt 0.535645 0.481934
vt 0.577637 0.393066
vt 0.563477 0.520508
vt 0.598145 0.435059
vt 0.660645 0.353027
vt 0.747070 0.333984
vt 0.673340 0.408691
vt 0.746582 0.405762
vt 0.617188 0.487793
vt 0.677734 0.474121
vt 0.731445 0.479492
vt 0.705566 0.542969
vt 0.588379 0.561035
vt 0.628906 0.540527
vt 0.671875 0.535400
s 1
usemtl MN157_MI_Light
f 1/1/1 2/2/2 3/3/3
f 1/1/1 4/4/4 2/2/2
f 2/2/2 4/4/4 5/5/5
f 6/6/6 4/4/4 1/1/1
f 7/7/7 4/4/4 6/6/6
f 6/6/6 8/8/8 7/7/7
f 8/8/8 9/9/9 7/7/7
f 10/10/10 9/9/9 8/8/8
f 8/8/8 11/11/11 10/10/10
f 12/12/12 11/11/11 8/8/8
f 13/13/13 12/12/12 8/8/8
f 14/14/14 12/12/12 13/13/13
f 13/13/13 15/15/15 14/14/14
f 16/16/16 14/14/14 15/15/15
f 16/16/16 15/15/15 17/17/17
f 14/14/14 16/16/16 18/18/18
f 19/1/19 20/3/20 21/2/21
f 19/1/19 21/2/21 22/4/22
f 21/2/21 23/5/23 22/4/22
f 24/6/24 19/1/19 22/4/22
f 24/6/24 22/4/22 25/7/25
f 24/6/24 25/7/25 26/8/26
f 26/8/26 25/7/25 27/9/27
f 28/10/28 26/8/26 27/9/27
f 26/8/26 28/10/28 29/11/29
f 26/8/26 29/11/29 30/12/30
f 30/12/30 31/13/31 26/8/26
f 31/13/31 30/12/30 32/14/32
f 33/15/33 31/13/31 32/14/32
f 34/16/34 33/15/33 32/14/32
f 34/16/34 35/17/35 33/15/33
f 32/14/32 36/18/36 34/16/34
f 37/19/37 38/20/38 39/21/39
f 37/19/37 39/21/39 40/22/40
f 37/19/37 40/22/40 41/23/41
f 37/19/37 41/23/41 42/24/42
f 37/19/37 42/24/42 43/25/43
f 44/19/44 45/20/45 46/21/46
f 44/19/44 46/21/46 47/22/47
f 44/19/44 47/22/47 48/23/48
f 44/19/44 48/23/48 49/24/49
f 44/19/44 49/24/49 50/25/50
f 51/19/44 52/20/50 53/21/51
f 51/19/44 53/21/51 54/22/52
f 51/19/44 54/22/52 55/23/53
f 51/19/44 55/23/53 56/24/54
f 51/19/44 56/24/54 57/25/55
f 58/19/37 59/20/43 60/21/56
f 58/19/37 60/21/56 61/22/57
f 58/19/37 61/22/57 62/23/58
f 58/19/37 62/23/58 63/24/59
f 58/19/37 63/24/59 64/25/45
f 65/19/60 66/25/61 67/24/62
f 65/19/60 67/24/62 68/23/63
f 65/19/60 68/23/63 69/22/64
f 65/19/60 69/22/64 70/21/65
f 65/19/60 70/21/65 71/20/66
f 72/19/67 73/25/68 74/24/69
f 72/19/67 74/24/69 75/23/70
f 72/19/67 75/23/70 76/22/71
f 72/19/67 76/22/71 77/21/72
f 72/19/67 77/21/72 78/20/73
f 79/19/60 80/25/74 81/24/75
f 79/19/60 81/24/75 82/23/76
f 79/19/60 82/23/76 83/22/77
f 79/19/60 83/22/77 84/21/78
f 79/19/60 84/21/78 85/20/61
f 86/19/67 87/25/66 88/24/79
f 86/19/67 88/24/79 89/23/80
f 86/19/67 89/23/80 90/22/81
f 86/19/67 90/22/81 91/21/82
f 86/19/67 91/21/82 92/20/68
f 93/26/83 94/27/84 95/28/85
f 94/27/84 93/26/83 96/29/86
f 97/30/87 93/26/83 95/28/85
f 98/31/88 96/29/86 93/26/83
f 96/29/86 98/31/88 99/32/89
f 100/33/90 99/32/89 98/31/88
f 93/26/83 97/30/87 101/34/91
f 93/26/83 101/34/91 98/31/88
f 100/33/90 98/31/88 102/35/92
f 102/35/92 98/31/88 101/34/91
f 103/36/93 100/33/90 102/35/92
f 102/35/92 104/37/94 103/36/93
f 101/34/91 97/30/87 105/38/95
f 101/34/91 105/38/95 102/35/92
f 105/38/95 97/30/87 106/39/96
f 105/38/95 106/39/96 107/40/97
f 108/41/98 104/37/94 102/35/92
f 108/41/98 102/35/92 105/38/95
f 104/37/94 108/41/98 109/42/99
f 110/43/100 105/38/95 107/40/97
f 108/41/98 105/38/95 110/43/100
f 110/43/100 107/40/97 111/44/101
f 111/44/101 112/45/102 110/43/100
f 113/46/103 108/41/98 110/43/100
f 110/43/100 112/45/102 114/47/104
f 114/47/104 112/45/102 115/48/105
f 116/49/106 114/47/104 115/48/105
f 113/46/103 110/43/100 117/50/107
f 114/47/104 117/50/107 110/43/100
f 118/51/108 108/41/98 113/46/103
f 108/41/98 118/51/108 109/42/99
f 114/47/104 116/49/106 119/52/109
f 120/53/110 119/52/109 116/49/106
f 121/54/111 118/51/108 113/46/103
f 121/54/111 113/46/103 117/50/107
f 120/53/110 122/55/112 119/52/109
f 122/55/112 120/53/110 123/56/113
f 122/55/112 123/56/113 124/57/114
f 125/58/115 114/47/104 119/52/109
f 119/52/109 122/55/112 125/58/115
f 117/50/107 114/47/104 125/58/115
f 124/57/114 126/59/116 122/55/112
f 125/58/115 122/55/112 126/59/116
f 126/59/116 124/57/114 127/60/117
f 127/60/117 128/61/118 126/59/116
f 126/59/116 128/61/118 129/62/119
f 126/59/116 129/62/119 130/63/120
f 126/59/116 130/63/120 125/58/115
f 130/63/120 129/62/119 131/64/121
f 131/64/121 132/65/122 130/63/120
f 130/63/120 132/65/122 125/58/115
f 132/65/122 131/64/121 133/66/123
f 132/65/122 133/66/123 134/67/124
f 132/65/122 134/67/124 125/58/115
f 135/68/125 134/67/124 133/66/123
f 134/67/124 135/68/125 136/69/126
f 134/67/124 136/69/126 137/70/127
f 138/71/128 125/58/115 134/67/124
f 139/72/129 134/67/124 137/70/127
f 134/67/124 139/72/129 138/71/128
f 140/73/130 125/58/115 138/71/128
f 117/50/107 125/58/115 140/73/130
f 117/50/107 140/73/130 121/54/111
f 138/71/128 141/74/131 140/73/130
f 140/73/130 141/74/131 121/54/111
f 141/74/131 138/71/128 139/72/129
f 141/74/131 118/51/108 121/54/111
f 141/74/131 142/75/132 118/51/108
f 141/74/131 139/72/129 142/75/132
f 142/75/132 109/42/99 118/51/108
f 137/70/127 143/76/133 139/72/129
f 139/72/129 143/76/133 142/75/132
f 143/76/133 137/70/127 144/77/134
f 145/78/135 143/76/133 144/77/134
f 146/79/136 143/76/133 145/78/135
f 142/75/132 147/80/137 109/42/99
f 143/76/133 147/80/137 142/75/132
f 143/76/133 146/79/136 147/80/137
f 148/81/138 109/42/99 147/80/137
f 149/82/139 147/80/137 146/79/136
f 147/80/137 150/83/140 148/81/138
f 151/84/141 147/80/137 149/82/139
f 151/84/141 150/83/140 147/80/137
f 152/26/142 153/28/143 154/27/144
f 154/27/144 155/29/145 152/26/142
f 152/26/142 156/30/146 153/28/143
f 157/31/147 152/26/142 155/29/145
f 155/29/145 158/32/148 157/31/147
f 159/33/149 157/31/147 158/32/148
f 156/30/146 152/26/142 160/34/150
f 152/26/142 157/31/147 160/34/150
f 159/33/149 161/35/151 157/31/147
f 161/35/151 160/34/150 157/31/147
f 162/36/152 161/35/151 159/33/149
f 161/35/151 162/36/152 163/37/153
f 160/34/150 164/38/154 156/30/146
f 160/34/150 161/35/151 164/38/154
f 164/38/154 165/39/155 156/30/146
f 164/38/154 166/40/156 165/39/155
f 163/37/153 167/41/157 161/35/151
f 167/41/157 164/38/154 161/35/151
f 167/41/157 163/37/153 168/42/158
f 169/43/159 166/40/156 164/38/154
f 167/41/157 169/43/159 164/38/154
f 166/40/156 169/43/159 170/44/160
f 170/44/160 169/43/159 171/45/161
f 169/43/159 167/41/157 172/46/162
f 169/43/159 173/47/163 171/45/161
f 173/47/163 174/48/164 171/45/161
f 173/47/163 175/49/165 174/48/164
f 172/46/162 176/50/166 169/43/159
f 169/43/159 176/50/166 173/47/163
f 177/51/167 172/46/162 167/41/157
f 167/41/157 168/42/158 177/51/167
f 176/50/166 172/46/162 178/54/168
f 177/51/167 178/54/168 172/46/162
f 175/49/165 173/47/163 179/52/169
f 180/53/170 175/49/165 179/52/169
f 181/58/171 173/47/163 176/50/166
f 181/58/171 179/52/169 173/47/163
f 182/55/172 180/53/170 179/52/169
f 179/52/169 181/58/171 182/55/172
f 180/53/170 182/55/172 183/56/173
f 182/55/172 184/57/174 183/56/173
f 185/59/175 184/57/174 182/55/172
f 181/58/171 185/59/175 182/55/172
f 184/57/174 185/59/175 186/60/176
f 186/60/176 185/59/175 187/61/177
f 185/59/175 188/62/178 187/61/177
f 185/59/175 189/63/179 188/62/178
f 185/59/175 181/58/171 189/63/179
f 189/63/179 190/64/180 188/62/178
f 191/65/181 190/64/180 189/63/179
f 189/63/179 181/58/171 191/65/181
f 190/64/180 191/65/181 192/66/182
f 192/66/182 191/65/181 193/67/183
f 191/65/181 181/58/171 193/67/183
f 192/66/182 193/67/183 194/68/184
f 193/67/183 195/69/185 194/68/184
f 193/67/183 196/70/186 195/69/185
f 197/71/187 193/67/183 181/58/171
f 193/67/183 198/72/188 196/70/186
f 198/72/188 193/67/183 197/71/187
f 199/73/189 197/71/187 181/58/171
f 176/50/166 199/73/189 181/58/171
f 176/50/166 178/54/168 199/73/189
f 200/74/190 197/71/187 199/73/189
f 199/73/189 178/54/168 200/74/190
f 197/71/187 200/74/190 198/72/188
f 177/51/167 200/74/190 178/54/168
f 200/74/190 177/51/167 201/75/191
f 201/75/191 198/72/188 200/74/190
f 177/51/167 168/42/158 201/75/191
f 202/76/192 196/70/186 198/72/188
f 198/72/188 201/75/191 202/76/192
f 196/70/186 202/76/192 203/77/193
f 204/78/194 203/77/193 202/76/192
f 202/76/192 205/79/195 204/78/194
f 206/80/196 201/75/191 168/42/158
f 202/76/192 201/75/191 206/80/196
f 205/79/195 202/76/192 206/80/196
f 207/81/197 206/80/196 168/42/158
f 208/82/198 205/79/195 206/80/196
f 206/80/196 207/81/197 209/83/199
f 210/84/200 208/82/198 206/80/196
f 210/84/200 206/80/196 209/83/199
f 211/85/201 212/86/202 213/87/203
f 213/87/203 214/88/204 211/85/201
f 215/89/205 213/87/203 212/86/202
f 214/88/204 213/87/203 216/90/206
f 216/90/206 217/91/207 214/88/204
f 216/90/206 218/92/117 217/91/207
f 213/87/203 215/89/205 219/93/208
f 219/93/208 215/89/205 220/94/209
f 219/93/208 220/94/209 221/95/210
f 218/92/117 216/90/206 222/96/211
f 222/96/211 223/97/212 218/92/117
f 223/97/212 222/96/211 224/98/213
f 213/87/203 225/99/214 216/90/206
f 225/99/214 222/96/211 216/90/206
f 213/87/203 219/93/208 225/99/214
f 226/100/215 224/98/213 222/96/211
f 222/96/211 225/99/214 226/100/215
f 224/98/213 226/100/215 227/101/216
f 228/102/217 227/101/216 226/100/215
f 228/102/217 229/103/123 227/101/216
f 226/100/215 230/104/218 228/102/217
f 230/104/218 226/100/215 225/99/214
f 229/103/123 228/102/217 231/105/219
f 228/102/217 230/104/218 231/105/219
f 232/106/220 229/103/123 231/105/219
f 232/106/220 231/105/219 233/107/221
f 233/107/221 231/105/219 234/108/222
f 230/104/218 234/108/222 231/105/219
f 234/108/222 235/109/223 233/107/221
f 236/110/224 234/108/222 230/104/218
f 225/99/214 236/110/224 230/104/218
f 235/109/223 234/108/222 237/111/225
f 236/110/224 237/111/225 234/108/222
f 235/109/223 237/111/225 238/112/226
f 225/99/214 239/113/227 236/110/224
f 225/99/214 219/93/208 239/113/227
f 237/111/225 240/114/228 238/112/226
f 241/115/135 238/112/226 240/114/228
f 242/116/229 241/115/135 240/114/228
f 237/111/225 236/110/224 243/117/230
f 243/117/230 240/114/228 237/111/225
f 236/110/224 244/118/231 243/117/230
f 236/110/224 239/113/227 244/118/231
f 242/116/229 240/114/228 245/119/232
f 245/119/232 246/120/139 242/116/229
f 247/121/233 246/120/139 245/119/232
f 248/122/234 247/121/233 245/119/232
f 248/122/234 245/119/232 249/123/235
f 245/119/232 240/114/228 250/124/236
f 249/123/235 245/119/232 250/124/236
f 240/114/228 243/117/230 250/124/236
f 250/124/236 251/125/237 249/123/235
f 243/117/230 252/126/238 250/124/236
f 250/124/236 252/126/238 251/125/237
f 243/117/230 244/118/231 252/126/238
f 253/127/239 251/125/237 252/126/238
f 253/127/239 254/128/240 251/125/237
f 255/129/241 254/128/240 253/127/239
f 252/126/238 244/118/231 256/130/242
f 252/126/238 256/130/242 253/127/239
f 239/113/227 256/130/242 244/118/231
f 255/129/241 253/127/239 257/131/243
f 258/132/244 255/129/241 257/131/243
f 257/131/243 259/133/89 258/132/244
f 239/113/227 260/134/245 256/130/242
f 260/134/245 239/113/227 219/93/208
f 219/93/208 221/95/210 260/134/245
f 261/135/246 260/134/245 221/95/210
f 262/136/247 256/130/242 260/134/245
f 260/134/245 261/135/246 262/136/247
f 256/130/242 262/136/247 253/127/239
f 253/127/239 262/136/247 257/131/243
f 263/137/248 262/136/247 261/135/246
f 262/136/247 263/137/248 264/138/249
f 257/131/243 262/136/247 264/138/249
f 265/139/250 264/138/249 263/137/248
f 264/138/249 266/140/251 257/131/243
f 266/140/251 264/138/249 265/139/250
f 266/140/251 259/133/89 257/131/243
f 267/141/252 266/140/251 265/139/250
f 259/133/89 266/140/251 268/142/253
f 267/141/252 269/143/84 266/140/251
f 266/140/251 269/143/84 268/142/253
f 270/85/254 271/87/255 272/86/256
f 271/87/255 270/85/254 273/88/257
f 271/87/255 274/89/258 272/86/256
f 271/87/255 273/88/257 275/90/259
f 275/90/259 273/88/257 276/91/260
f 275/90/259 276/91/260 277/92/176
f 271/87/255 278/93/261 274/89/258
f 278/93/261 279/94/262 274/89/258
f 278/93/261 280/95/263 279/94/262
f 271/87/255 275/90/259 281/99/264
f 271/87/255 281/99/264 278/93/261
f 277/92/176 282/96/265 275/90/259
f 281/99/264 275/90/259 282/96/265
f 283/97/266 282/96/265 277/92/176
f 284/98/267 282/96/265 283/97/266
f 284/98/267 285/100/268 282/96/265
f 282/96/265 285/100/268 281/99/264
f 286/101/180 285/100/268 284/98/267
f 286/101/180 287/102/269 285/100/268
f 287/102/269 286/101/180 288/103/182
f 289/104/270 285/100/268 287/102/269
f 285/100/268 289/104/270 281/99/264
f 287/102/269 288/103/182 290/105/271
f 287/102/269 290/105/271 289/104/270
f 291/106/272 290/105/271 288/103/182
f 290/105/271 291/106/272 292/107/273
f 292/107/273 293/108/274 290/105/271
f 289/104/270 290/105/271 293/108/274
f 293/108/274 292/107/273 294/109/186
f 295/110/275 289/104/270 293/108/274
f 281/99/264 289/104/270 295/110/275
f 294/109/186 296/111/276 293/108/274
f 295/110/275 293/108/274 296/111/276
f 297/112/277 296/111/276 294/109/186
f 298/113/278 281/99/264 295/110/275
f 281/99/264 298/113/278 278/93/261
f 296/111/276 297/112/277 299/114/279
f 300/115/280 299/114/279 297/112/277
f 301/116/195 299/114/279 300/115/280
f 295/110/275 296/111/276 302/117/281
f 299/114/279 302/117/281 296/111/276
f 295/110/275 303/118/282 298/113/278
f 295/110/275 302/117/281 303/118/282
f 301/116/195 304/119/283 299/114/279
f 304/119/283 301/116/195 305/120/284
f 306/121/285 304/119/283 305/120/284
f 307/122/286 304/119/283 306/121/285
f 307/122/286 308/123/287 304/119/283
f 304/119/283 309/124/288 299/114/279
f 308/123/287 309/124/288 304/119/283
f 302/117/281 299/114/279 309/124/288
f 309/124/288 308/123/287 310/125/289
f 311/126/290 302/117/281 309/124/288
f 309/124/288 310/125/289 311/126/290
f 302/117/281 311/126/290 303/118/282
f 312/127/291 311/126/290 310/125/289
f 312/127/291 310/125/289 313/128/292
f 314/129/293 312/127/291 313/128/292
f 303/118/282 311/126/290 315/130/294
f 311/126/290 312/127/291 315/130/294
f 303/118/282 315/130/294 298/113/278
f 314/129/293 316/131/295 312/127/291
f 317/132/296 316/131/295 314/129/293
f 316/131/295 317/132/296 318/133/297
f 319/136/298 315/130/294 312/127/291
f 312/127/291 316/131/295 319/136/298
f 320/134/299 298/113/278 315/130/294
f 315/130/294 319/136/298 320/134/299
f 320/134/299 278/93/261 298/113/278
f 278/93/261 320/134/299 280/95/263
f 320/134/299 321/135/300 280/95/263
f 321/135/300 320/134/299 319/136/298
f 319/136/298 322/137/301 321/135/300
f 322/137/301 319/136/298 323/138/302
f 316/131/295 323/138/302 319/136/298
f 323/138/302 324/139/303 322/137/301
f 323/138/302 316/131/295 325/140/304
f 325/140/304 324/139/303 323/138/302
f 325/140/304 316/131/295 318/133/297
f 326/141/305 324/139/303 325/140/304
f 318/133/297 327/142/306 325/140/304
f 326/141/305 325/140/304 328/143/307
f 325/140/304 327/142/306 328/143/307
f 329/144/308 330/145/309 331/146/310
f 332/147/311 329/144/308 331/146/310
f 330/145/309 329/144/308 333/148/312
f 333/148/312 334/149/313 330/145/309
f 332/147/311 335/150/314 329/144/308
f 336/151/315 335/150/314 332/147/311
f 333/148/312 329/144/308 337/152/316
f 335/150/314 337/152/316 329/144/308
f 336/151/315 338/153/317 335/150/314
f 339/154/318 338/153/317 336/151/315
f 335/150/314 340/155/319 337/152/316
f 338/153/317 340/155/319 335/150/314
f 339/154/318 341/156/320 338/153/317
f 342/157/321 341/156/320 339/154/318
f 338/153/317 343/158/322 340/155/319
f 341/156/320 343/158/322 338/153/317
f 342/157/321 344/159/323 341/156/320
f 343/158/322 341/156/320 345/160/324
f 342/157/321 346/161/325 344/159/323
f 346/161/325 342/157/321 347/162/326
f 341/156/320 344/159/323 348/163/327
f 346/161/325 348/163/327 344/159/323
f 348/163/327 345/160/324 341/156/320
f 347/162/326 349/164/328 346/161/325
f 349/164/328 347/162/326 350/165/329
f 348/163/327 346/161/325 351/166/330
f 351/166/330 345/160/324 348/163/327
f 349/164/328 352/167/331 346/161/325
f 351/166/330 346/161/325 352/167/331
f 350/165/329 353/168/332 349/164/328
f 353/168/332 352/167/331 349/164/328
f 353/168/332 350/165/329 354/169/333
f 355/170/334 353/168/332 354/169/333
f 356/171/335 351/166/330 352/167/331
f 352/167/331 353/168/332 356/171/335
f 353/168/332 355/170/334 357/172/336
f 358/173/337 357/172/336 355/170/334
f 353/168/332 359/174/338 356/171/335
f 359/174/338 353/168/332 357/172/336
f 351/166/330 356/171/335 360/175/339
f 351/166/330 360/175/339 345/160/324
f 361/176/340 356/171/335 359/174/338
f 361/176/340 360/175/339 356/171/335
f 357/172/336 362/177/341 359/174/338
f 361/176/340 359/174/338 362/177/341
f 357/172/336 358/173/337 363/178/342
f 362/177/341 357/172/336 363/178/342
f 358/173/337 364/179/343 363/178/342
f 364/179/343 358/173/337 365/180/344
f 364/179/343 365/180/344 366/181/345
f 367/182/346 363/178/342 364/179/343
f 363/178/342 367/182/346 362/177/341
f 368/183/347 364/179/343 366/181/345
f 367/182/346 364/179/343 368/183/347
f 369/184/348 368/183/347 366/181/345
f 370/185/349 362/177/341 367/182/346
f 368/183/347 370/185/349 367/182/346
f 362/177/341 370/185/349 371/186/350
f 362/177/341 371/186/350 361/176/340
f 371/186/350 370/185/349 372/187/351
f 372/187/351 361/176/340 371/186/350
f 370/185/349 368/183/347 373/188/352
f 361/176/340 372/187/351 374/189/353
f 360/175/339 361/176/340 374/189/353
f 372/187/351 370/185/349 375/190/354
f 373/188/352 375/190/354 370/185/349
f 376/191/355 374/189/353 372/187/351
f 375/190/354 376/191/355 372/187/351
f 360/175/339 374/189/353 377/192/356
f 374/189/353 376/191/355 377/192/356
f 360/175/339 377/192/356 378/193/357
f 376/191/355 375/190/354 379/194/358
f 380/195/359 377/192/356 376/191/355
f 379/194/358 380/195/359 376/191/355
f 377/192/356 380/195/359 378/193/357
f 375/190/354 381/196/360 379/194/358
f 375/190/354 373/188/352 381/196/360
f 382/197/361 380/195/359 379/194/358
f 381/196/360 382/197/361 379/194/358
f 383/198/362 378/193/357 380/195/359
f 384/199/363 360/175/339 378/193/357
f 378/193/357 383/198/362 384/199/363
f 384/199/363 345/160/324 360/175/339
f 345/160/324 384/199/363 343/158/322
f 384/199/363 340/155/319 343/158/322
f 340/155/319 384/199/363 383/198/362
f 380/195/359 385/200/364 383/198/362
f 385/200/364 340/155/319 383/198/362
f 385/200/364 380/195/359 382/197/361
f 340/155/319 385/200/364 337/152/316
f 337/152/316 385/200/364 386/201/365
f 386/201/365 385/200/364 382/197/361
f 337/152/316 386/201/365 333/148/312
f 382/197/361 387/202/366 386/201/365
f 381/196/360 387/202/366 382/197/361
f 386/201/365 388/203/367 333/148/312
f 334/149/313 333/148/312 388/203/367
f 386/201/365 387/202/366 389/204/368
f 388/203/367 386/201/365 389/204/368
f 390/205/369 334/149/313 388/203/367
f 334/149/313 390/205/369 391/206/370
f 392/207/371 388/203/367 389/204/368
f 388/203/367 392/207/371 390/205/369
f 393/208/372 391/206/370 390/205/369
f 391/206/370 393/208/372 394/209/373
f 393/208/372 395/210/374 394/209/373
f 390/205/369 392/207/371 396/211/375
f 390/205/369 396/211/375 393/208/372
f 395/210/374 393/208/372 397/212/376
f 397/212/376 398/213/377 395/210/374
f 393/208/372 396/211/375 399/214/378
f 393/208/372 399/214/378 397/212/376
f 398/213/377 397/212/376 400/215/379
f 399/214/378 400/215/379 397/212/376
f 400/215/379 401/216/380 398/213/377
f 402/217/381 399/214/378 396/211/375
f 402/217/381 396/211/375 392/207/371
f 401/216/380 400/215/379 403/218/382
f 401/216/380 403/218/382 404/219/383
f 400/215/379 399/214/378 405/220/384
f 400/215/379 405/220/384 403/218/382
f 406/221/385 405/220/384 399/214/378
f 399/214/378 402/217/381 406/221/385
f 405/220/384 407/222/386 403/218/382
f 403/218/382 407/222/386 404/219/383
f 408/223/387 407/222/386 405/220/384
f 406/221/385 408/223/387 405/220/384
f 408/223/387 409/224/388 407/222/386
f 407/222/386 409/224/388 404/219/383
f 406/221/385 410/225/389 408/223/387
f 410/225/389 409/224/388 408/223/387
f 410/225/389 406/221/385 411/226/390
f 402/217/381 411/226/390 406/221/385
f 409/224/388 410/225/389 412/227/391
f 409/224/388 412/227/391 404/219/383
f 413/228/392 412/227/391 410/225/389
f 411/226/390 413/228/392 410/225/389
f 412/227/391 414/229/393 404/219/383
f 412/227/391 413/228/392 414/229/393
f 411/226/390 402/217/381 415/230/394
f 413/228/392 411/226/390 416/231/395
f 415/230/394 416/231/395 411/226/390
f 417/232/396 414/229/393 413/228/392
f 418/233/397 415/230/394 402/217/381
f 392/207/371 418/233/397 402/217/381
f 418/233/397 392/207/371 389/204/368
f 414/229/393 417/232/396 419/234/398
f 414/229/393 419/234/398 404/219/383
f 389/204/368 420/235/399 418/233/397
f 387/202/366 420/235/399 389/204/368
f 415/230/394 418/233/397 421/236/400
f 420/235/399 421/236/400 418/233/397
f 421/236/400 422/237/401 415/230/394
f 416/231/395 415/230/394 422/237/401
f 420/235/399 387/202/366 423/238/402
f 424/239/403 416/231/395 422/237/401
f 421/236/400 420/235/399 425/240/404
f 423/238/402 425/240/404 420/235/399
f 422/237/401 421/236/400 426/241/405
f 426/241/405 424/239/403 422/237/401
f 427/242/406 421/236/400 425/240/404
f 421/236/400 427/242/406 426/241/405
f 425/240/404 423/238/402 428/243/407
f 425/240/404 429/244/408 427/242/406
f 429/244/408 425/240/404 428/243/407
f 428/243/407 423/238/402 430/245/409
f 430/245/409 429/244/408 428/243/407
f 423/238/402 387/202/366 431/246/410
f 431/246/410 430/245/409 423/238/402
f 381/196/360 431/246/410 387/202/366
f 430/245/409 432/247/411 429/244/408
f 381/196/360 433/248/412 431/246/410
f 431/246/410 434/249/413 430/245/409
f 434/249/413 432/247/411 430/245/409
f 434/249/413 431/246/410 433/248/412
f 433/248/412 381/196/360 373/188/352
f 432/247/411 434/249/413 435/250/414
f 436/251/415 434/249/413 433/248/412
f 436/251/415 435/250/414 434/249/413
f 373/188/352 437/252/416 433/248/412
f 437/252/416 436/251/415 433/248/412
f 438/253/417 437/252/416 373/188/352
f 373/188/352 368/183/347 438/253/417
f 438/253/417 368/183/347 369/184/348
f 439/254/418 436/251/415 437/252/416
f 438/253/417 369/184/348 440/255/419
f 441/256/420 440/255/419 369/184/348
f 438/253/417 442/257/421 437/252/416
f 442/257/421 438/253/417 440/255/419
f 442/257/421 439/254/418 437/252/416
f 443/258/422 440/255/419 441/256/420
f 444/259/423 443/258/422 441/256/420
f 445/260/424 443/258/422 444/259/423
f 446/261/425 442/257/421 440/255/419
f 440/255/419 443/258/422 446/261/425
f 443/258/422 445/260/424 447/262/426
f 448/263/427 447/262/426 445/260/424
f 443/258/422 449/264/428 446/261/425
f 449/264/428 443/258/422 447/262/426
f 442/257/421 446/261/425 450/265/429
f 442/257/421 450/265/429 439/254/418
f 449/264/428 451/266/430 446/261/425
f 446/261/425 451/266/430 450/265/429
f 452/267/431 447/262/426 448/263/427
f 453/268/432 452/267/431 448/263/427
f 454/269/433 449/264/428 447/262/426
f 447/262/426 452/267/431 454/269/433
f 455/270/434 452/267/431 453/268/432
f 455/270/434 454/269/433 452/267/431
f 456/271/435 455/270/434 453/268/432
f 449/264/428 454/269/433 457/272/436
f 449/264/428 457/272/436 451/266/430
f 458/273/437 454/269/433 455/270/434
f 458/273/437 457/272/436 454/269/433
f 459/274/438 455/270/434 456/271/435
f 459/274/438 458/273/437 455/270/434
f 460/275/439 459/274/438 456/271/435
f 457/272/436 458/273/437 461/276/440
f 462/277/441 459/274/438 460/275/439
f 463/278/442 462/277/441 460/275/439
f 464/279/443 458/273/437 459/274/438
f 462/277/441 464/279/443 459/274/438
f 461/276/440 458/273/437 464/279/443
f 462/277/441 463/278/442 465/280/444
f 466/281/445 464/279/443 462/277/441
f 465/280/444 466/281/445 462/277/441
f 467/282/446 461/276/440 464/279/443
f 466/281/445 468/283/447 464/279/443
f 467/282/446 464/279/443 468/283/447
f 465/280/444 469/284/448 466/281/445
f 468/283/447 466/281/445 469/284/448
f 470/285/449 461/276/440 467/282/446
f 457/272/436 461/276/440 470/285/449
f 468/283/447 471/286/450 467/282/446
f 472/287/451 457/272/436 470/285/449
f 472/287/451 451/266/430 457/272/436
f 450/265/429 451/266/430 472/287/451
f 473/288/452 470/285/449 467/282/446
f 471/286/450 473/288/452 467/282/446
f 470/285/449 474/289/453 472/287/451
f 474/289/453 470/285/449 473/288/452
f 475/290/454 450/265/429 472/287/451
f 475/290/454 439/254/418 450/265/429
f 474/289/453 476/291/455 472/287/451
f 476/291/455 475/290/454 472/287/451
f 439/254/418 475/290/454 477/292/456
f 478/293/457 475/290/454 476/291/455
f 475/290/454 478/293/457 477/292/456
f 439/254/418 477/292/456 479/294/458
f 439/254/418 479/294/458 436/251/415
f 479/294/458 435/250/414 436/251/415
f 480/295/459 477/292/456 478/293/457
f 477/292/456 480/295/459 479/294/458
f 479/294/458 481/296/460 435/250/414
f 479/294/458 480/295/459 481/296/460
f 478/293/457 482/297/461 480/295/459
f 476/291/455 482/297/461 478/293/457
f 483/298/462 481/296/460 480/295/459
f 483/298/462 480/295/459 482/297/461
f 435/250/414 481/296/460 484/299/463
f 435/250/414 484/299/463 432/247/411
f 484/299/463 429/244/408 432/247/411
f 481/296/460 483/298/462 485/300/464
f 481/296/460 485/300/464 484/299/463
f 429/244/408 484/299/463 486/301/465
f 486/301/465 427/242/406 429/244/408
f 487/302/466 485/300/464 483/298/462
f 482/297/461 487/302/466 483/298/462
f 427/242/406 486/301/465 488/303/467
f 488/303/467 426/241/405 427/242/406
f 484/299/463 489/304/468 486/301/465
f 426/241/405 488/303/467 490/305/469
f 424/239/403 426/241/405 490/305/469
f 486/301/465 491/306/470 488/303/467
f 491/306/470 486/301/465 489/304/468
f 488/303/467 492/307/471 490/305/469
f 488/303/467 491/306/470 492/307/471
f 490/305/469 493/308/472 424/239/403
f 493/308/472 490/305/469 492/307/471
f 491/306/470 494/309/473 492/307/471
f 494/309/473 493/308/472 492/307/471
f 489/304/468 495/310/474 491/306/470
f 491/306/470 495/310/474 494/309/473
f 489/304/468 484/299/463 496/311/475
f 496/311/475 484/299/463 485/300/464
f 489/304/468 497/312/476 495/310/474
f 496/311/475 497/312/476 489/304/468
f 485/300/464 498/313/477 496/311/475
f 485/300/464 487/302/466 498/313/477
f 497/312/476 496/311/475 499/314/478
f 498/313/477 499/314/478 496/311/475
f 500/315/479 495/310/474 497/312/476
f 499/314/478 500/315/479 497/312/476
f 498/313/477 501/316/480 499/314/478
f 499/314/478 501/316/480 500/315/479
f 495/310/474 500/315/479 502/317/481
f 502/317/481 494/309/473 495/310/474
f 501/316/480 503/318/482 500/315/479
f 503/318/482 502/317/481 500/315/479
f 501/316/480 504/319/483 503/318/482
f 502/317/481 503/318/482 505/320/484
f 506/321/485 504/319/483 501/316/480
f 501/316/480 498/313/477 506/321/485
f 487/302/466 506/321/485 498/313/477
f 504/319/483 506/321/485 507/322/486
f 505/320/484 508/323/487 502/317/481
f 494/309/473 502/317/481 508/323/487
f 508/323/487 505/320/484 509/324/488
f 507/322/486 506/321/485 510/325/489
f 487/302/466 510/325/489 506/321/485
f 510/325/489 511/326/490 507/322/486
f 512/327/491 510/325/489 487/302/466
f 487/302/466 482/297/461 512/327/491
f 513/328/492 511/326/490 510/325/489
f 510/325/489 512/327/491 513/328/492
f 511/326/490 513/328/492 514/329/493
f 513/328/492 515/330/494 514/329/493
f 516/331/495 512/327/491 482/297/461
f 482/297/461 476/291/455 516/331/495
f 516/331/495 476/291/455 474/289/453
f 517/332/496 513/328/492 512/327/491
f 512/327/491 516/331/495 517/332/496
f 515/330/494 513/328/492 518/333/497
f 513/328/492 517/332/496 518/333/497
f 515/330/494 518/333/497 519/334/498
f 516/331/495 520/335/499 517/332/496
f 520/335/499 518/333/497 517/332/496
f 474/289/453 521/336/500 516/331/495
f 520/335/499 516/331/495 521/336/500
f 473/288/452 521/336/500 474/289/453
f 518/333/497 522/337/501 519/334/498
f 518/333/497 520/335/499 522/337/501
f 523/338/502 519/334/498 522/337/501
f 524/339/503 520/335/499 521/336/500
f 521/336/500 473/288/452 524/339/503
f 522/337/501 525/340/504 523/338/502
f 525/340/504 526/341/505 523/338/502
f 520/335/499 527/342/506 522/337/501
f 525/340/504 522/337/501 527/342/506
f 527/342/506 520/335/499 524/339/503
f 525/340/504 528/343/507 526/341/505
f 528/343/507 525/340/504 527/342/506
f 529/344/508 527/342/506 524/339/503
f 473/288/452 529/344/508 524/339/503
f 529/344/508 528/343/507 527/342/506
f 529/344/508 473/288/452 471/286/450
f 530/345/509 528/343/507 529/344/508
f 471/286/450 530/345/509 529/344/508
f 531/346/510 526/341/505 528/343/507
f 531/346/510 528/343/507 530/345/509
f 526/341/505 531/346/510 532/347/511
f 531/346/510 533/348/512 532/347/511
f 530/345/509 471/286/450 534/349/513
f 534/349/513 471/286/450 468/283/447
f 468/283/447 469/284/448 534/349/513
f 535/350/514 531/346/510 530/345/509
f 534/349/513 535/350/514 530/345/509
f 536/351/515 534/349/513 469/284/448
f 535/350/514 534/349/513 536/351/515
f 465/280/444 536/351/515 469/284/448
f 531/346/510 535/350/514 537/352/516
f 533/348/512 531/346/510 537/352/516
f 538/353/517 535/350/514 536/351/515
f 538/353/517 536/351/515 465/280/444
f 539/354/518 537/352/516 535/350/514
f 539/354/518 535/350/514 538/353/517
f 539/354/518 533/348/512 537/352/516
f 539/354/518 538/353/517 465/280/444
f 533/348/512 539/354/518 540/355/519
f 463/278/442 539/354/518 465/280/444
f 539/354/518 463/278/442 540/355/519
f 416/231/395 424/239/403 541/356/520
f 541/356/520 413/228/392 416/231/395
f 424/239/403 493/308/472 541/356/520
f 413/228/392 541/356/520 417/232/396
f 493/308/472 542/357/521 541/356/520
f 541/356/520 542/357/521 417/232/396
f 493/308/472 543/358/522 542/357/521
f 493/308/472 494/309/473 543/358/522
f 494/309/473 508/323/487 543/358/522
f 542/357/521 544/359/523 417/232/396
f 419/234/398 417/232/396 544/359/523
f 545/360/524 542/357/521 543/358/522
f 542/357/521 545/360/524 544/359/523
f 543/358/522 508/323/487 546/361/525
f 546/361/525 545/360/524 543/358/522
f 508/323/487 509/324/488 546/361/525
f 547/362/526 546/361/525 509/324/488
f 547/362/526 548/363/527 546/361/525
f 545/360/524 546/361/525 548/363/527
f 548/363/527 547/362/526 549/364/528
f 548/363/527 550/365/529 545/360/524
f 545/360/524 550/365/529 544/359/523
f 549/364/528 551/366/530 548/363/527
f 550/365/529 548/363/527 551/366/530
f 551/366/530 549/364/528 552/367/531
f 553/368/532 551/366/530 552/367/531
f 544/359/523 550/365/529 554/369/533
f 544/359/523 554/369/533 419/234/398
f 419/234/398 554/369/533 404/219/383
f 550/365/529 555/370/534 554/369/533
f 554/369/533 555/370/534 404/219/383
f 551/366/530 555/370/534 550/365/529
f 553/368/532 404/219/383 556/371/535
f 551/366/530 553/368/532 556/371/535
f 555/370/534 556/371/535 404/219/383
f 555/370/534 551/366/530 556/371/535
f 557/145/309 558/144/536 559/146/537
f 558/144/536 560/147/311 559/146/537
f 558/144/536 557/145/309 561/148/538
f 561/148/538 557/145/309 562/149/313
f 560/147/311 558/144/536 563/150/539
f 563/150/539 564/151/315 560/147/311
f 561/148/538 565/152/540 558/144/536
f 565/152/540 563/150/539 558/144/536
f 564/151/315 563/150/539 566/153/541
f 564/151/315 566/153/541 567/154/318
f 563/150/539 565/152/540 568/155/542
f 568/155/542 566/153/541 563/150/539
f 569/156/543 567/154/318 566/153/541
f 569/156/543 570/157/321 567/154/318
f 566/153/541 568/155/542 571/158/544
f 571/158/544 569/156/543 566/153/541
f 570/157/321 569/156/543 572/159/545
f 569/156/543 571/158/544 573/160/546
f 574/161/547 570/157/321 572/159/545
f 569/156/543 575/163/548 572/159/545
f 575/163/548 574/161/547 572/159/545
f 575/163/548 569/156/543 573/160/546
f 570/157/321 574/161/547 576/162/326
f 573/160/546 577/166/549 575/163/548
f 574/161/547 575/163/548 577/166/549
f 573/160/546 571/158/544 578/199/550
f 568/155/542 578/199/550 571/158/544
f 579/164/551 576/162/326 574/161/547
f 576/162/326 579/164/551 580/165/329
f 581/167/552 579/164/551 574/161/547
f 581/167/552 574/161/547 577/166/549
f 582/168/553 580/165/329 579/164/551
f 581/167/552 582/168/553 579/164/551
f 582/168/553 583/169/333 580/165/329
f 582/168/553 584/170/334 583/169/333
f 577/166/549 585/171/554 581/167/552
f 582/168/553 581/167/552 585/171/554
f 584/170/334 582/168/553 586/172/555
f 586/172/555 587/173/337 584/170/334
f 588/174/556 582/168/553 585/171/554
f 582/168/553 588/174/556 586/172/555
f 585/171/554 577/166/549 589/175/557
f 589/175/557 577/166/549 573/160/546
f 573/160/546 578/199/550 589/175/557
f 590/176/558 588/174/556 585/171/554
f 589/175/557 590/176/558 585/171/554
f 591/177/559 586/172/555 588/174/556
f 590/176/558 591/177/559 588/174/556
f 587/173/337 586/172/555 592/178/560
f 586/172/555 591/177/559 592/178/560
f 593/179/561 587/173/337 592/178/560
f 593/179/561 594/180/344 587/173/337
f 593/179/561 595/181/345 594/180/344
f 592/178/560 596/182/562 593/179/561
f 596/182/562 592/178/560 591/177/559
f 597/183/563 595/181/345 593/179/561
f 596/182/562 597/183/563 593/179/561
f 598/184/348 595/181/345 597/183/563
f 591/177/559 599/185/564 596/182/562
f 599/185/564 597/183/563 596/182/562
f 599/185/564 591/177/559 600/186/565
f 600/186/565 591/177/559 590/176/558
f 601/187/566 599/185/564 600/186/565
f 590/176/558 601/187/566 600/186/565
f 597/183/563 599/185/564 602/188/567
f 601/187/566 590/176/558 603/189/568
f 590/176/558 589/175/557 603/189/568
f 601/187/566 604/190/569 599/185/564
f 604/190/569 602/188/567 599/185/564
f 603/189/568 605/191/570 601/187/566
f 605/191/570 604/190/569 601/187/566
f 603/189/568 589/175/557 606/192/571
f 605/191/570 603/189/568 606/192/571
f 606/192/571 589/175/557 607/193/572
f 607/193/572 589/175/557 578/199/550
f 606/192/571 608/195/573 605/191/570
f 608/195/573 606/192/571 607/193/572
f 609/198/574 607/193/572 578/199/550
f 607/193/572 609/198/574 608/195/573
f 578/199/550 568/155/542 609/198/574
f 568/155/542 610/200/575 609/198/574
f 609/198/574 610/200/575 608/195/573
f 610/200/575 568/155/542 565/152/540
f 611/194/576 605/191/570 608/195/573
f 604/190/569 605/191/570 611/194/576
f 610/200/575 612/197/577 608/195/573
f 612/197/577 611/194/576 608/195/573
f 610/200/575 565/152/540 613/201/578
f 613/201/578 612/197/577 610/200/575
f 561/148/538 613/201/578 565/152/540
f 614/196/579 604/190/569 611/194/576
f 612/197/577 614/196/579 611/194/576
f 602/188/567 604/190/569 614/196/579
f 612/197/577 613/201/578 615/202/580
f 614/196/579 612/197/577 615/202/580
f 613/201/578 561/148/538 616/203/581
f 562/149/313 616/203/581 561/148/538
f 616/203/581 617/204/582 613/201/578
f 613/201/578 617/204/582 615/202/580
f 562/149/313 618/205/583 616/203/581
f 618/205/583 562/149/313 619/206/370
f 617/204/582 616/203/581 620/207/584
f 616/203/581 618/205/583 620/207/584
f 619/206/370 621/208/585 618/205/583
f 621/208/585 619/206/370 622/209/373
f 621/208/585 622/209/373 623/210/374
f 618/205/583 624/211/586 620/207/584
f 624/211/586 618/205/583 621/208/585
f 621/208/585 623/210/374 625/212/587
f 625/212/587 623/210/374 626/213/377
f 621/208/585 627/214/588 624/211/586
f 627/214/588 621/208/585 625/212/587
f 625/212/587 626/213/377 628/215/589
f 628/215/589 627/214/588 625/212/587
f 626/213/377 629/216/380 628/215/589
f 627/214/588 630/217/590 624/211/586
f 630/217/590 620/207/584 624/211/586
f 628/215/589 629/216/380 631/218/591
f 629/216/380 632/219/383 631/218/591
f 627/214/588 628/215/589 633/220/592
f 628/215/589 631/218/591 633/220/592
f 633/220/592 634/221/593 627/214/588
f 630/217/590 627/214/588 634/221/593
f 633/220/592 631/218/591 635/222/594
f 631/218/591 632/219/383 635/222/594
f 635/222/594 636/223/595 633/220/592
f 634/221/593 633/220/592 636/223/595
f 636/223/595 635/222/594 637/224/596
f 635/222/594 632/219/383 637/224/596
f 638/225/597 634/221/593 636/223/595
f 637/224/596 638/225/597 636/223/595
f 639/226/598 630/217/590 634/221/593
f 638/225/597 639/226/598 634/221/593
f 638/225/597 637/224/596 640/227/599
f 637/224/596 632/219/383 640/227/599
f 641/228/600 639/226/598 638/225/597
f 641/228/600 638/225/597 640/227/599
f 630/217/590 639/226/598 642/230/601
f 640/227/599 643/229/602 641/228/600
f 640/227/599 632/219/383 643/229/602
f 639/226/598 641/228/600 644/231/603
f 644/231/603 642/230/601 639/226/598
f 643/229/602 645/232/604 641/228/600
f 641/228/600 646/356/605 644/231/603
f 646/356/605 641/228/600 645/232/604
f 645/232/604 643/229/602 647/234/606
f 643/229/602 632/219/383 647/234/606
f 645/232/604 648/357/607 646/356/605
f 647/234/606 649/359/608 645/232/604
f 648/357/607 645/232/604 649/359/608
f 647/234/606 632/219/383 650/369/609
f 649/359/608 647/234/606 650/369/609
f 650/369/609 632/219/383 651/370/610
f 649/359/608 650/369/609 652/365/611
f 652/365/611 650/369/609 651/370/610
f 651/370/610 632/219/383 653/371/612
f 654/368/532 653/371/612 632/219/383
f 653/371/612 655/366/613 651/370/610
f 654/368/532 655/366/613 653/371/612
f 655/366/613 652/365/611 651/370/610
f 655/366/613 654/368/532 656/367/531
f 657/364/528 655/366/613 656/367/531
f 655/366/613 657/364/528 658/363/614
f 655/366/613 658/363/614 652/365/611
f 659/362/526 658/363/614 657/364/528
f 660/360/615 649/359/608 652/365/611
f 658/363/614 660/360/615 652/365/611
f 648/357/607 649/359/608 660/360/615
f 658/363/614 659/362/526 661/361/616
f 660/360/615 658/363/614 661/361/616
f 662/324/488 661/361/616 659/362/526
f 663/358/617 648/357/607 660/360/615
f 661/361/616 663/358/617 660/360/615
f 662/324/488 664/323/618 661/361/616
f 663/358/617 661/361/616 664/323/618
f 665/320/484 664/323/618 662/324/488
f 663/358/617 666/308/619 648/357/607
f 666/308/619 646/356/605 648/357/607
f 665/320/484 667/317/620 664/323/618
f 668/318/482 667/317/620 665/320/484
f 664/323/618 669/309/621 663/358/617
f 669/309/621 664/323/618 667/317/620
f 669/309/621 666/308/619 663/358/617
f 668/318/482 670/315/622 667/317/620
f 667/317/620 671/310/623 669/309/621
f 670/315/622 671/310/623 667/317/620
f 669/309/621 672/307/624 666/308/619
f 670/315/622 668/318/482 673/316/625
f 674/319/626 673/316/625 668/318/482
f 669/309/621 675/306/627 672/307/624
f 675/306/627 669/309/621 671/310/623
f 674/319/626 676/321/628 673/316/625
f 676/321/628 674/319/626 677/322/486
f 673/316/625 678/314/629 670/315/622
f 677/322/486 679/325/630 676/321/628
f 679/325/630 677/322/486 680/326/631
f 681/313/632 673/316/625 676/321/628
f 673/316/625 681/313/632 678/314/629
f 679/325/630 682/302/633 676/321/628
f 681/313/632 676/321/628 682/302/633
f 680/326/631 683/328/634 679/325/630
f 683/328/634 680/326/631 684/329/493
f 683/328/634 684/329/493 685/330/494
f 686/327/635 679/325/630 683/328/634
f 679/325/630 686/327/635 682/302/633
f 683/328/634 685/330/494 687/333/636
f 685/330/494 688/334/498 687/333/636
f 683/328/634 689/332/637 686/327/635
f 689/332/637 683/328/634 687/333/636
f 687/333/636 688/334/498 690/337/638
f 688/334/498 691/338/502 690/337/638
f 692/335/639 689/332/637 687/333/636
f 692/335/639 687/333/636 690/337/638
f 693/331/640 686/327/635 689/332/637
f 693/331/640 689/332/637 692/335/639
f 690/337/638 691/338/502 694/340/641
f 694/340/641 691/338/502 695/341/642
f 696/342/643 690/337/638 694/340/641
f 696/342/643 692/335/639 690/337/638
f 694/340/641 695/341/642 697/343/644
f 697/343/644 696/342/643 694/340/641
f 695/341/642 698/346/645 697/343/644
f 698/346/645 695/341/642 699/347/646
f 700/348/512 698/346/645 699/347/646
f 701/344/647 696/342/643 697/343/644
f 698/346/645 700/348/512 702/352/648
f 696/342/643 701/344/647 703/339/649
f 703/339/649 692/335/639 696/342/643
f 697/343/644 698/346/645 704/345/650
f 704/345/650 701/344/647 697/343/644
f 703/339/649 705/336/651 692/335/639
f 692/335/639 705/336/651 693/331/640
f 701/344/647 706/288/652 703/339/649
f 705/336/651 703/339/649 706/288/652
f 704/345/650 707/286/653 701/344/647
f 706/288/652 701/344/647 707/286/653
f 698/346/645 708/350/654 704/345/650
f 708/350/654 698/346/645 702/352/648
f 707/286/653 704/345/650 709/349/655
f 708/350/654 709/349/655 704/345/650
f 700/348/512 710/354/656 702/352/648
f 710/354/656 708/350/654 702/352/648
f 710/354/656 700/348/512 711/355/519
f 712/278/657 710/354/656 711/355/519
f 708/350/654 710/354/656 713/353/658
f 710/354/656 712/278/657 714/280/659
f 710/354/656 714/280/659 713/353/658
f 713/353/658 715/351/660 708/350/654
f 715/351/660 713/353/658 714/280/659
f 709/349/655 708/350/654 715/351/660
f 716/277/661 714/280/659 712/278/657
f 712/278/657 717/275/439 716/277/661
f 714/280/659 718/284/662 715/351/660
f 718/284/662 709/349/655 715/351/660
f 714/280/659 719/281/663 718/284/662
f 714/280/659 716/277/661 719/281/663
f 709/349/655 718/284/662 720/283/664
f 719/281/663 720/283/664 718/284/662
f 707/286/653 709/349/655 720/283/664
f 716/277/661 721/279/665 719/281/663
f 720/283/664 719/281/663 721/279/665
f 720/283/664 722/282/666 707/286/653
f 721/279/665 722/282/666 720/283/664
f 707/286/653 722/282/666 706/288/652
f 721/279/665 716/277/661 723/274/667
f 717/275/439 723/274/667 716/277/661
f 723/274/667 717/275/439 724/271/435
f 722/282/666 721/279/665 725/276/668
f 724/271/435 726/270/669 723/274/667
f 726/270/669 724/271/435 727/268/432
f 723/274/667 728/273/670 721/279/665
f 723/274/667 726/270/669 728/273/670
f 725/276/668 721/279/665 728/273/670
f 729/267/671 726/270/669 727/268/432
f 727/268/432 730/263/427 729/267/671
f 726/270/669 731/269/672 728/273/670
f 726/270/669 729/267/671 731/269/672
f 732/262/673 729/267/671 730/263/427
f 732/262/673 731/269/672 729/267/671
f 730/263/427 733/260/424 732/262/673
f 728/273/670 731/269/672 734/272/674
f 734/272/674 725/276/668 728/273/670
f 731/269/672 732/262/673 735/264/675
f 735/264/675 734/272/674 731/269/672
f 733/260/424 736/258/676 732/262/673
f 732/262/673 736/258/676 735/264/675
f 736/258/676 733/260/424 737/259/423
f 738/256/420 736/258/676 737/259/423
f 736/258/676 738/256/420 739/255/677
f 739/255/677 738/256/420 598/184/348
f 736/258/676 740/261/678 735/264/675
f 739/255/677 740/261/678 736/258/676
f 735/264/675 740/261/678 741/266/679
f 741/266/679 734/272/674 735/264/675
f 739/255/677 598/184/348 742/253/680
f 742/253/680 598/184/348 597/183/563
f 602/188/567 742/253/680 597/183/563
f 740/261/678 739/255/677 743/257/681
f 742/253/680 743/257/681 739/255/677
f 740/261/678 744/265/682 741/266/679
f 743/257/681 744/265/682 740/261/678
f 745/252/683 742/253/680 602/188/567
f 743/257/681 742/253/680 745/252/683
f 602/188/567 746/248/684 745/252/683
f 746/248/684 602/188/567 614/196/579
f 743/257/681 745/252/683 747/254/685
f 744/265/682 743/257/681 747/254/685
f 745/252/683 746/248/684 748/251/686
f 747/254/685 745/252/683 748/251/686
f 746/248/684 614/196/579 749/246/687
f 749/246/687 614/196/579 615/202/580
f 748/251/686 746/248/684 750/249/688
f 749/246/687 750/249/688 746/248/684
f 748/251/686 751/294/689 747/254/685
f 748/251/686 750/249/688 752/250/690
f 751/294/689 748/251/686 752/250/690
f 750/249/688 749/246/687 753/245/691
f 752/250/690 750/249/688 754/247/692
f 750/249/688 753/245/691 754/247/692
f 749/246/687 615/202/580 755/238/693
f 753/245/691 749/246/687 755/238/693
f 755/238/693 615/202/580 756/235/694
f 615/202/580 617/204/582 756/235/694
f 753/245/691 755/238/693 757/243/695
f 617/204/582 758/233/696 756/235/694
f 758/233/696 617/204/582 620/207/584
f 758/233/696 620/207/584 630/217/590
f 642/230/601 758/233/696 630/217/590
f 759/240/697 755/238/693 756/235/694
f 755/238/693 759/240/697 757/243/695
f 756/235/694 758/233/696 760/236/698
f 758/233/696 642/230/601 760/236/698
f 759/240/697 756/235/694 760/236/698
f 761/244/699 753/245/691 757/243/695
f 761/244/699 757/243/695 759/240/697
f 753/245/691 761/244/699 754/247/692
f 762/242/700 759/240/697 760/236/698
f 761/244/699 759/240/697 762/242/700
f 763/237/701 760/236/698 642/230/601
f 642/230/601 644/231/603 763/237/701
f 760/236/698 763/237/701 764/241/702
f 760/236/698 764/241/702 762/242/700
f 644/231/603 765/239/703 763/237/701
f 765/239/703 764/241/702 763/237/701
f 765/239/703 644/231/603 646/356/605
f 646/356/605 666/308/619 765/239/703
f 666/308/619 766/305/704 765/239/703
f 764/241/702 765/239/703 766/305/704
f 766/305/704 666/308/619 672/307/624
f 767/303/705 764/241/702 766/305/704
f 672/307/624 767/303/705 766/305/704
f 767/303/705 762/242/700 764/241/702
f 767/303/705 672/307/624 675/306/627
f 768/301/706 762/242/700 767/303/705
f 767/303/705 675/306/627 768/301/706
f 768/301/706 761/244/699 762/242/700
f 769/304/707 768/301/706 675/306/627
f 675/306/627 671/310/623 769/304/707
f 770/299/708 761/244/699 768/301/706
f 768/301/706 769/304/707 770/299/708
f 770/299/708 754/247/692 761/244/699
f 770/299/708 752/250/690 754/247/692
f 771/312/709 769/304/707 671/310/623
f 670/315/622 771/312/709 671/310/623
f 771/312/709 670/315/622 678/314/629
f 771/312/709 772/311/710 769/304/707
f 772/311/710 771/312/709 678/314/629
f 772/311/710 770/299/708 769/304/707
f 681/313/632 772/311/710 678/314/629
f 773/300/711 772/311/710 681/313/632
f 773/300/711 770/299/708 772/311/710
f 682/302/633 773/300/711 681/313/632
f 752/250/690 770/299/708 774/296/712
f 773/300/711 774/296/712 770/299/708
f 752/250/690 774/296/712 751/294/689
f 773/300/711 682/302/633 775/298/713
f 775/298/713 774/296/712 773/300/711
f 682/302/633 776/297/714 775/298/713
f 776/297/714 682/302/633 686/327/635
f 774/296/712 775/298/713 777/295/715
f 777/295/715 751/294/689 774/296/712
f 776/297/714 777/295/715 775/298/713
f 686/327/635 693/331/640 776/297/714
f 777/295/715 778/292/716 751/294/689
f 778/292/716 747/254/685 751/294/689
f 776/297/714 779/293/717 777/295/715
f 778/292/716 777/295/715 779/293/717
f 747/254/685 778/292/716 780/290/718
f 779/293/717 780/290/718 778/292/716
f 747/254/685 780/290/718 744/265/682
f 776/297/714 781/291/719 779/293/717
f 780/290/718 779/293/717 781/291/719
f 781/291/719 776/297/714 693/331/640
f 780/290/718 782/287/720 744/265/682
f 781/291/719 782/287/720 780/290/718
f 744/265/682 782/287/720 741/266/679
f 782/287/720 734/272/674 741/266/679
f 693/331/640 783/289/721 781/291/719
f 782/287/720 781/291/719 783/289/721
f 783/289/721 693/331/640 705/336/651
f 706/288/652 783/289/721 705/336/651
f 734/272/674 782/287/720 784/285/722
f 783/289/721 784/285/722 782/287/720
f 783/289/721 706/288/652 784/285/722
f 734/272/674 784/285/722 725/276/668
f 706/288/652 722/282/666 784/285/722
f 784/285/722 722/282/666 725/276/668
