# Blender 4.4.1
# www.blender.org
mtllib hurd.mtl
o Cube_Cube.003
v 0.853702 0.620441 -0.442764
v 0.977462 2.259823 -0.567415
v 0.847614 0.584473 0.428790
v 0.995964 2.259823 0.552680
v 0.370193 0.295030 0.455909
v 0.515603 2.110492 0.705234
v 0.395962 0.340367 -0.466686
v 0.524687 2.111923 -0.719207
v 1.110814 0.971892 -0.557719
v 1.299242 1.454521 -0.583308
v 1.299199 1.954521 -0.560376
v 1.291142 1.923515 0.553553
v 1.276159 1.454521 0.572724
v 1.156157 0.958097 0.508105
v 0.685955 1.614792 -0.878721
v 0.684727 1.114792 -0.928144
v 0.508642 0.614792 -0.666849
v 0.650198 1.679162 0.922446
v 0.652383 1.150553 0.924937
v 0.506121 0.621944 0.698707
v 0.952903 0.572353 0.258576
v 1.041883 0.592901 -0.006987
v 0.997936 0.612261 -0.272550
v 1.089402 2.384820 -0.282651
v 1.154964 2.425008 -0.006988
v 1.089403 2.384820 0.268676
v 0.442816 2.368490 0.335145
v 0.566122 2.508451 -0.006986
v 0.454545 2.385499 -0.349118
v 0.358414 0.153735 0.170467
v 0.365760 0.128485 -0.006986
v 0.360241 0.168164 -0.184439
v 1.327808 1.043924 -0.300371
v 1.393371 1.043924 -0.006988
v 1.327809 1.043924 0.286395
v 1.435091 1.454521 -0.330442
v 1.500654 1.454521 -0.006988
v 1.435092 1.454521 0.316466
v 1.463529 1.954521 -0.327379
v 1.524731 1.954521 -0.006988
v 1.463531 1.954521 0.342012
v 0.859711 2.027530 0.727878
v 0.315762 1.310135 0.973391
v 0.292442 0.764596 0.828651
v 0.344108 1.286430 -0.978634
v 0.305098 0.752864 -0.841086
v 0.878110 2.040098 -0.715922
v -0.853704 0.620441 -0.447148
v -0.977464 2.259823 -0.567411
v -0.847612 0.584473 0.433180
v -0.995962 2.259823 0.552684
v 0.000001 0.214803 0.429098
v -0.370191 0.295030 0.455910
v -0.515601 2.110492 0.705236
v 0.000001 1.880259 0.571653
v -0.395964 0.340367 -0.466684
v -0.000001 0.237562 -0.424715
v -0.000001 1.880259 -0.585624
v -0.524689 2.111923 -0.719204
v -1.110816 0.971892 -0.576026
v -1.299245 1.454521 -0.556332
v -1.299201 1.954521 -0.533651
v -1.291139 1.923515 0.526837
v -1.276157 1.454521 0.545758
v -1.156155 0.958097 0.526422
v -0.000002 1.459828 -0.946050
v -0.000002 0.959828 -0.974041
v -0.000001 0.459828 -0.680917
v -0.685959 1.614792 -0.878718
v -0.684731 1.114792 -0.928141
v -0.508644 0.614792 -0.666847
v -0.650194 1.679162 0.922449
v -0.652380 1.150553 0.924940
v -0.506119 0.621944 0.698709
v 0.000002 1.459828 0.946384
v 0.000002 0.959828 0.960070
v 0.000001 0.459828 0.705599
v -0.952902 0.590731 0.258580
v -1.041883 0.592901 -0.006983
v -0.997937 0.612261 -0.272547
v -1.089403 2.384820 -0.282647
v -1.154964 2.425008 -0.006983
v -1.089402 2.384820 0.268681
v 0.000000 2.015554 0.240589
v 0.000000 2.096911 -0.006985
v -0.000001 2.015554 -0.254560
v -0.442814 2.368490 0.335147
v -0.566122 2.508451 -0.006984
v -0.454546 2.385499 -0.349116
v -0.358413 0.153735 0.162537
v -0.365760 0.128485 -0.006985
v -0.360242 0.168164 -0.176506
v 0.000000 0.114649 0.196209
v 0.000000 -0.000347 -0.006985
v 0.000000 0.114649 -0.210180
v -1.327809 1.043924 -0.300366
v -1.393371 1.043924 -0.006983
v -1.327808 1.043924 0.286400
v -1.435092 1.454521 -0.330437
v -1.500654 1.454521 -0.006982
v -1.435091 1.454521 0.316472
v -1.463531 1.954521 -0.327374
v -1.524731 1.954521 -0.006982
v -1.463529 1.954521 0.342017
v -0.859708 2.027530 0.727882
v -0.315758 1.310135 0.973392
v -0.292439 0.764596 0.828653
v -0.344112 1.286430 -0.978633
v -0.305102 0.752864 -0.841084
v -0.878113 2.040098 -0.715919
vn 0.6210 0.6214 0.4778
vn 0.3878 0.3894 -0.8355
vn 0.0445 0.9082 -0.4162
vn -0.4476 0.6765 -0.5849
vn 0.4921 -0.7695 -0.4072
vn 0.1629 -0.8555 -0.4915
vn 0.1622 -0.8562 -0.4905
vn 0.1677 -0.8510 -0.4976
vn -0.4332 0.5866 -0.6843
vn 0.0832 0.5685 0.8185
vn -0.4404 0.5974 0.6702
vn 0.2414 -0.7263 0.6436
vn 0.1591 -0.3761 0.9128
vn -0.0139 0.1491 0.9887
vn 0.4826 -0.5442 0.6862
vn 0.5632 -0.2391 0.7910
vn 0.4930 0.0198 0.8698
vn 0.2409 -0.7331 -0.6360
vn 0.3194 -0.5248 -0.7890
vn 0.1931 0.0960 -0.9765
vn 0.4575 -0.5605 -0.6903
vn 0.5797 -0.2671 -0.7698
vn 0.4423 0.0411 -0.8959
vn 0.7047 -0.6448 0.2960
vn 0.8223 -0.2522 0.5100
vn 0.7751 0.0011 0.6318
vn 0.8169 0.0265 -0.5762
vn 0.9789 -0.0535 -0.1972
vn 0.9811 -0.0472 -0.1874
vn 0.9809 -0.0479 -0.1888
vn 0.9839 -0.0474 0.1725
vn 0.8516 -0.2560 -0.4575
vn 0.9460 -0.2612 -0.1918
vn 0.9460 -0.2612 0.1918
vn 0.6752 -0.6231 -0.3949
vn 0.7771 -0.6052 -0.1729
vn 0.7768 -0.6054 -0.1736
vn 0.7768 -0.6054 -0.1734
vn 0.7768 -0.6054 0.1736
vn 0.1275 -0.9112 0.3918
vn 0.1292 -0.8630 0.4884
vn 0.1623 -0.8588 -0.4860
vn 0.4976 -0.7857 0.3676
vn 0.4972 -0.7856 0.3683
vn 0.4988 -0.7858 0.3655
vn 0.5607 -0.8162 0.1394
vn 0.5550 -0.8080 -0.1979
vn -0.4538 0.6867 0.5679
vn -0.5839 0.8032 0.1181
vn -0.5851 0.8049 -0.0984
vn 0.0189 0.9128 0.4080
vn 0.1381 0.9748 0.1750
vn 0.1381 0.9748 -0.1750
vn 0.6239 0.5951 -0.5065
vn 0.7140 0.6483 -0.2643
vn 0.7052 0.6581 0.2637
vn 0.3286 -0.9330 0.1464
vn 0.3244 -0.9209 -0.2160
vn 0.5590 -0.8199 0.1239
vn 0.5508 -0.8209 -0.1510
vn 0.7772 -0.6051 -0.1727
vn 0.7598 -0.6163 0.2069
vn 0.4255 -0.6408 -0.6390
vn 0.4463 -0.5329 -0.7189
vn 0.7654 -0.3282 -0.5535
vn 0.8095 -0.2639 0.5245
vn 0.0227 0.3121 -0.9498
vn -0.6424 0.7281 -0.2393
vn -0.6359 0.7332 0.2410
vn -0.6396 0.7116 -0.2908
vn -0.6334 0.7163 0.2927
vn -0.1085 0.4199 0.9011
vn 0.7789 0.6121 0.1366
vn 0.7775 0.6111 -0.1485
vn 0.4587 -0.4539 0.7639
vn 0.4280 -0.6468 0.6313
vn -0.0591 0.7974 -0.6006
vn -0.0684 0.8121 0.5796
vn 0.4894 0.0061 0.8720
vn 0.1741 -0.5077 0.8437
vn 0.0873 -0.1163 0.9894
vn 0.0764 -0.6148 0.7850
vn 0.1609 -0.8872 0.4325
vn 0.1681 -0.8508 -0.4978
vn 0.0738 -0.6073 -0.7910
vn 0.0328 -0.5055 -0.8622
vn -0.0662 0.0558 -0.9962
vn 0.4506 0.0867 -0.8885
vn 0.0751 0.3267 -0.9421
vn 0.4131 0.2419 0.8780
vn 0.8474 -0.0751 0.5256
vn 0.8799 -0.0472 -0.4727
vn 0.9786 -0.0544 -0.1984
vn 0.9779 -0.0658 0.1982
vn 0.9457 -0.2471 0.2113
vn 0.9457 -0.2471 -0.2113
vn 0.6233 0.6467 -0.4396
vn 0.6125 0.5391 0.5781
vn 0.6374 -0.5236 -0.5653
vn 0.6809 -0.5686 0.4617
vn 0.4725 -0.7652 -0.4372
vn 0.4993 -0.7859 0.3648
vn 0.0161 0.9234 0.3835
vn 0.0375 0.9365 -0.3488
vn 0.0532 0.4623 0.8851
vn 0.4235 0.3739 0.8251
vn -0.0723 0.0273 0.9970
vn 0.1449 0.0053 0.9894
vn 0.0972 -0.4514 0.8870
vn 0.2362 -0.4368 0.8680
vn 0.0372 0.2553 -0.9661
vn 0.0912 -0.1101 -0.9897
vn 0.1459 -0.3734 -0.9161
vn 0.2125 -0.6297 -0.7472
vn 0.3728 0.1800 -0.9103
vn 0.1137 0.5206 -0.8462
vn -0.6210 0.6214 0.4778
vn -0.4313 0.3632 -0.8259
vn -0.0445 0.9082 -0.4162
vn 0.4476 0.6765 -0.5849
vn -0.4909 -0.7744 -0.3991
vn -0.1741 -0.8557 -0.4873
vn -0.1708 -0.8563 -0.4874
vn -0.1727 -0.8559 -0.4874
vn 0.4332 0.5866 -0.6843
vn -0.0832 0.5685 0.8185
vn 0.4404 0.5974 0.6702
vn -0.2414 -0.7263 0.6436
vn -0.1591 -0.3761 0.9128
vn 0.0139 0.1491 0.9887
vn -0.4700 -0.5587 0.6833
vn -0.5709 -0.1693 0.8034
vn -0.5176 0.0078 0.8556
vn -0.5198 0.0161 0.8542
vn -0.5202 0.0178 0.8538
vn -0.2409 -0.7331 -0.6360
vn -0.3194 -0.5248 -0.7890
vn -0.1931 0.0960 -0.9765
vn -0.4454 -0.5769 -0.6847
vn -0.5847 -0.1962 -0.7872
vn -0.4731 0.0400 -0.8801
vn -0.7073 -0.6522 0.2727
vn -0.7961 -0.2484 0.5518
vn -0.7309 0.0042 0.6825
vn -0.7818 0.0283 -0.6228
vn -0.9789 -0.0535 -0.1972
vn -0.9809 -0.0479 -0.1888
vn -0.9811 -0.0472 -0.1874
vn -0.9839 -0.0474 0.1725
vn -0.8291 -0.2531 -0.4986
vn -0.9460 -0.2612 -0.1918
vn -0.9460 -0.2612 0.1918
vn -0.6800 -0.6331 -0.3698
vn -0.7771 -0.6052 -0.1729
vn -0.7768 -0.6054 -0.1734
vn -0.7768 -0.6054 -0.1736
vn -0.7768 -0.6054 0.1736
vn -0.1360 -0.9101 0.3914
vn -0.1398 -0.8617 0.4877
vn -0.1727 -0.8572 -0.4851
vn -0.4961 -0.7899 0.3605
vn -0.5601 -0.8155 0.1457
vn -0.5539 -0.8065 -0.2068
vn 0.4538 0.6867 0.5679
vn 0.5839 0.8032 0.1181
vn 0.5851 0.8049 -0.0984
vn -0.0189 0.9128 0.4080
vn -0.1381 0.9748 0.1750
vn -0.1381 0.9748 -0.1750
vn -0.6241 0.6013 -0.4990
vn -0.6239 0.5955 -0.5061
vn -0.6239 0.5951 -0.5065
vn -0.7140 0.6483 -0.2643
vn -0.7052 0.6581 0.2637
vn -0.3283 -0.9321 0.1531
vn -0.3237 -0.9189 -0.2256
vn -0.5631 -0.8061 0.1821
vn -0.5495 -0.8217 -0.1508
vn -0.7772 -0.6051 -0.1727
vn -0.7401 -0.6271 0.2429
vn -0.4197 -0.6410 -0.6426
vn -0.4260 -0.5323 -0.7315
vn -0.7879 -0.2854 -0.5457
vn -0.8290 -0.2204 0.5140
vn -0.0227 0.3121 -0.9498
vn 0.6424 0.7281 -0.2393
vn 0.6359 0.7332 0.2410
vn 0.6396 0.7116 -0.2908
vn 0.6334 0.7163 0.2927
vn 0.1085 0.4199 0.9011
vn -0.7789 0.6121 0.1366
vn -0.7775 0.6111 -0.1485
vn -0.4399 -0.4535 0.7751
vn -0.4225 -0.6470 0.6347
vn 0.0591 0.7974 -0.6006
vn 0.0684 0.8121 0.5796
vn -0.5172 0.0062 0.8558
vn -0.1741 -0.5077 0.8437
vn -0.0873 -0.1163 0.9894
vn -0.0764 -0.6148 0.7850
vn -0.1626 -0.8915 0.4228
vn -0.1707 -0.8564 -0.4872
vn -0.0738 -0.6073 -0.7910
vn -0.0329 -0.5055 -0.8622
vn 0.0662 0.0558 -0.9962
vn -0.4809 0.0851 -0.8726
vn -0.0751 0.3267 -0.9421
vn -0.4541 0.2104 0.8657
vn -0.8195 -0.0756 0.5681
vn -0.8561 -0.0455 -0.5148
vn -0.9786 -0.0544 -0.1984
vn -0.9779 -0.0657 0.1982
vn -0.9457 -0.2471 0.2113
vn -0.9457 -0.2471 -0.2113
vn -0.6241 0.6027 -0.4972
vn -0.6008 0.4781 0.6406
vn -0.6429 -0.5271 -0.5558
vn -0.6949 -0.5992 0.3976
vn -0.4727 -0.7711 -0.4266
vn -0.5348 -0.7922 0.2941
vn -0.0161 0.9234 0.3835
vn -0.0375 0.9365 -0.3488
vn -0.0532 0.4623 0.8851
vn -0.4635 0.3440 0.8166
vn 0.0723 0.0273 0.9970
vn -0.1449 0.0053 0.9894
vn -0.0972 -0.4514 0.8870
vn -0.2362 -0.4368 0.8680
vn -0.0372 0.2553 -0.9661
vn -0.0913 -0.1101 -0.9897
vn -0.1459 -0.3734 -0.9161
vn -0.2125 -0.6297 -0.7472
vn -0.4186 0.1535 -0.8951
vn -0.1137 0.5206 -0.8462
vt 0.562500 0.187500
vt 0.625000 0.187500
vt 0.625000 0.250000
vt 0.625000 1.000000
vt 0.562500 1.000000
vt 0.596480 0.966020
vt 0.812500 0.687500
vt 0.875000 0.687500
vt 0.875000 0.750000
vt 0.812500 0.750000
vt 0.750000 0.750000
vt 0.187500 0.687500
vt 0.187500 0.750000
vt 0.125000 0.750000
vt 0.250000 0.687500
vt 0.250000 0.750000
vt 0.562500 0.875000
vt 0.625000 0.875000
vt 0.625000 0.937500
vt 0.625000 0.312500
vt 0.597269 0.284769
vt 0.625000 0.375000
vt 0.562500 0.375000
vt 0.437500 0.312500
vt 0.437500 0.375000
vt 0.375000 0.375000
vt 0.500000 0.312500
vt 0.500000 0.375000
vt 0.463887 0.338887
vt 0.562500 0.312500
vt 0.532249 0.344749
vt 0.375000 0.250000
vt 0.437500 0.250000
vt 0.500000 0.250000
vt 0.562500 0.250000
vt 0.375000 0.875000
vt 0.437500 0.875000
vt 0.437500 0.937500
vt 0.500000 0.937500
vt 0.462511 0.912489
vt 0.562500 0.937500
vt 0.531091 0.906409
vt 0.437500 1.000000
vt 0.375000 1.000000
vt 0.500000 1.000000
vt 0.437500 0.187500
vt 0.500000 0.187500
vt 0.500000 0.000000
vt 0.562500 0.000000
vt 0.562500 0.062500
vt 0.562500 0.125000
vt 0.500000 0.125000
vt 0.500000 0.062500
vt 0.437500 0.062500
vt 0.375000 0.000000
vt 0.437500 0.000000
vt 0.437500 0.125000
vt 0.375000 0.125000
vt 0.250000 0.500000
vt 0.250000 0.562500
vt 0.187500 0.562500
vt 0.250000 0.625000
vt 0.125000 0.500000
vt 0.187500 0.500000
vt 0.187500 0.625000
vt 0.125000 0.625000
vt 0.750000 0.500000
vt 0.812500 0.500000
vt 0.812500 0.562500
vt 0.812500 0.625000
vt 0.750000 0.625000
vt 0.875000 0.500000
vt 0.875000 0.562500
vt 0.875000 0.625000
vt 0.625000 0.000000
vt 0.625000 0.062500
vt 0.625000 0.125000
vt 0.125000 0.562500
vt 0.125000 0.687500
vt 0.375000 0.062500
vt 0.375000 0.187500
vt 0.375000 0.937500
vt 0.750000 0.687500
vt 0.750000 0.562500
vt 0.375000 0.312500
vt 0.500000 0.875000
s 1
usemtl Material.001
f 41/1/1 26/2/1 4/3/1
f 2/4/2 11/5/2 47/6/2
f 29/7/3 24/8/3 2/9/3
f 29/7/4 8/10/4 58/11/4
f 32/12/5 7/13/5 1/14/5
f 32/12/6 95/15/7 57/16/8
f 66/17/9 58/18/9 8/19/9
f 4/3/10 6/20/10 42/21/10
f 6/20/11 55/22/11 75/23/11
f 20/24/12 77/25/12 52/26/12
f 19/27/13 76/28/13 44/29/13
f 18/30/14 75/23/14 43/31/14
f 3/32/15 14/33/15 20/24/15
f 14/33/16 13/34/16 19/27/16
f 13/34/17 12/35/17 18/30/17
f 57/36/18 68/37/18 17/38/18
f 16/39/19 17/38/19 46/40/19
f 15/41/20 16/39/20 45/42/20
f 17/38/21 9/43/21 1/44/21
f 16/39/22 10/45/22 9/43/22
f 15/41/23 11/5/23 10/45/23
f 35/46/24 14/33/24 3/32/24
f 35/46/25 38/47/25 13/34/25
f 41/1/26 12/35/26 13/34/26
f 10/48/27 11/49/27 39/50/27
f 39/50/28 40/51/29 37/52/30
f 37/52/31 40/51/31 41/1/31
f 10/48/32 36/53/32 33/54/32
f 33/54/33 36/53/33 37/52/33
f 37/52/34 38/47/34 35/46/34
f 1/55/35 9/56/35 33/54/35
f 33/54/36 34/57/37 22/58/38
f 22/58/39 34/57/39 35/46/39
f 52/59/40 93/60/40 30/61/40
f 30/61/41 93/60/41 94/62/41
f 94/62/42 95/15/42 32/12/42
f 3/63/43 5/64/44 30/61/45
f 30/61/46 31/65/46 22/66/46
f 22/66/47 31/65/47 32/12/47
f 55/67/48 6/68/48 27/69/48
f 27/69/49 28/70/49 85/71/49
f 85/71/50 28/70/50 29/7/50
f 4/72/51 26/73/51 27/69/51
f 26/73/52 25/74/52 28/70/52
f 28/70/53 25/74/53 24/8/53
f 2/75/54 24/76/54 39/50/54
f 39/50/55 24/76/55 25/77/55
f 25/77/56 26/2/56 41/1/56
f 31/65/57 30/61/57 94/62/57
f 31/65/58 94/62/58 32/12/58
f 21/78/59 30/61/59 22/66/59
f 23/79/60 22/66/60 32/12/60
f 23/80/61 33/54/36 22/58/38
f 21/81/62 22/58/62 35/46/62
f 7/82/63 17/38/63 1/44/63
f 17/38/64 16/39/64 9/43/64
f 9/56/65 10/48/65 33/54/65
f 14/33/66 35/46/66 13/34/66
f 15/41/67 66/17/67 8/19/67
f 86/83/68 85/71/68 29/7/68
f 84/84/69 27/69/69 85/71/69
f 86/83/70 29/7/70 58/11/70
f 84/84/71 55/67/71 27/69/71
f 18/30/72 6/20/72 75/23/72
f 40/51/73 25/77/73 41/1/73
f 40/51/74 39/50/74 25/77/74
f 20/24/75 14/33/75 19/27/75
f 5/85/76 3/32/76 20/24/76
f 8/10/77 29/7/77 2/9/77
f 6/68/78 4/72/78 27/69/78
f 19/27/79 13/34/79 18/30/79
f 77/25/80 20/24/80 44/29/80
f 76/28/81 19/27/81 43/31/81
f 5/85/82 20/24/82 52/26/82
f 5/64/83 52/59/83 30/61/83
f 7/13/84 32/12/6 57/16/8
f 7/82/85 57/36/85 17/38/85
f 68/37/86 67/86/86 46/40/86
f 67/86/87 66/17/87 45/42/87
f 16/39/88 15/41/88 10/45/88
f 15/41/89 8/19/89 47/6/89
f 18/30/90 12/35/90 42/21/90
f 38/47/91 41/1/91 13/34/91
f 36/53/92 10/48/92 39/50/92
f 36/53/93 39/50/28 37/52/30
f 38/47/94 37/52/94 41/1/94
f 34/57/95 37/52/95 35/46/95
f 34/57/96 33/54/96 37/52/96
f 11/49/97 2/75/97 39/50/97
f 12/35/98 41/1/98 4/3/98
f 23/80/99 1/55/99 33/54/99
f 21/81/100 35/46/100 3/32/100
f 23/79/101 32/12/101 1/14/101
f 21/78/102 3/63/43 30/61/45
f 27/69/103 26/73/103 28/70/103
f 29/7/104 28/70/104 24/8/104
f 6/20/105 18/30/105 42/21/105
f 12/35/106 4/3/106 42/21/106
f 75/23/107 76/28/107 43/31/107
f 19/27/108 18/30/108 43/31/108
f 76/28/109 77/25/109 44/29/109
f 20/24/110 19/27/110 44/29/110
f 66/17/111 15/41/111 45/42/111
f 16/39/112 67/86/112 45/42/112
f 67/86/113 16/39/113 46/40/113
f 17/38/114 68/37/114 46/40/114
f 11/5/115 15/41/115 47/6/115
f 8/19/116 2/4/116 47/6/116
f 104/1/117 51/3/117 83/2/117
f 49/4/118 110/6/118 62/5/118
f 89/7/119 49/9/119 81/8/119
f 89/7/120 58/11/120 59/10/120
f 92/12/121 48/14/121 56/13/121
f 92/12/122 57/16/123 95/15/124
f 66/17/125 59/19/125 58/18/125
f 51/3/126 105/21/126 54/20/126
f 54/20/127 75/23/127 55/22/127
f 74/24/128 52/26/128 77/25/128
f 73/27/129 107/29/129 76/28/129
f 72/30/130 106/31/130 75/23/130
f 50/32/131 74/24/131 65/33/131
f 65/33/132 73/27/132 64/34/132
f 64/34/133 72/30/134 63/35/135
f 57/36/136 71/38/136 68/37/136
f 70/39/137 109/40/137 71/38/137
f 69/41/138 108/42/138 70/39/138
f 71/38/139 48/44/139 60/43/139
f 70/39/140 60/43/140 61/45/140
f 69/41/141 61/45/141 62/5/141
f 98/46/142 50/32/142 65/33/142
f 98/46/143 64/34/143 101/47/143
f 104/1/144 64/34/144 63/35/144
f 61/48/145 102/50/145 62/49/145
f 102/50/146 100/52/147 103/51/148
f 100/52/149 104/1/149 103/51/149
f 61/48/150 96/54/150 99/53/150
f 96/54/151 100/52/151 99/53/151
f 100/52/152 98/46/152 101/47/152
f 48/55/153 96/54/153 60/56/153
f 96/54/154 79/58/155 97/57/156
f 79/58/157 98/46/157 97/57/157
f 52/59/158 90/61/158 93/60/158
f 90/61/159 94/62/159 93/60/159
f 94/62/160 92/12/122 95/15/124
f 50/63/161 90/61/161 53/64/161
f 90/61/162 79/66/162 91/65/162
f 79/66/163 92/12/163 91/65/163
f 55/67/164 87/69/164 54/68/164
f 87/69/165 85/71/165 88/70/165
f 85/71/166 89/7/166 88/70/166
f 51/72/167 87/69/167 83/73/167
f 83/73/168 88/70/168 82/74/168
f 88/70/169 81/8/169 82/74/169
f 49/75/170 102/50/171 81/76/172
f 102/50/173 82/77/173 81/76/173
f 82/77/174 104/1/174 83/2/174
f 91/65/175 94/62/175 90/61/175
f 91/65/176 92/12/176 94/62/176
f 78/78/177 79/66/177 90/61/177
f 80/79/178 92/12/178 79/66/178
f 80/80/179 79/58/155 96/54/154
f 78/81/180 98/46/180 79/58/180
f 56/82/181 48/44/181 71/38/181
f 71/38/182 60/43/182 70/39/182
f 60/56/183 96/54/183 61/48/183
f 65/33/184 64/34/184 98/46/184
f 69/41/185 59/19/185 66/17/185
f 86/83/186 89/7/186 85/71/186
f 84/84/187 85/71/187 87/69/187
f 86/83/188 58/11/188 89/7/188
f 84/84/189 87/69/189 55/67/189
f 72/30/190 75/23/190 54/20/190
f 103/51/191 104/1/191 82/77/191
f 103/51/192 82/77/192 102/50/192
f 74/24/193 73/27/193 65/33/193
f 53/85/194 74/24/194 50/32/194
f 59/10/195 49/9/195 89/7/195
f 54/68/196 87/69/196 51/72/196
f 73/27/197 72/30/134 64/34/133
f 77/25/198 107/29/198 74/24/198
f 76/28/199 106/31/199 73/27/199
f 53/85/200 52/26/200 74/24/200
f 53/64/201 90/61/201 52/59/201
f 56/13/202 57/16/123 92/12/122
f 56/82/203 71/38/203 57/36/203
f 68/37/204 109/40/204 67/86/204
f 67/86/205 108/42/205 66/17/205
f 70/39/206 61/45/206 69/41/206
f 69/41/207 110/6/207 59/19/207
f 72/30/208 105/21/208 63/35/208
f 101/47/209 64/34/209 104/1/209
f 99/53/210 102/50/210 61/48/210
f 99/53/211 100/52/147 102/50/146
f 101/47/212 104/1/212 100/52/212
f 97/57/213 98/46/213 100/52/213
f 97/57/214 100/52/214 96/54/214
f 62/49/215 102/50/171 49/75/170
f 63/35/216 51/3/216 104/1/216
f 80/80/217 96/54/217 48/55/217
f 78/81/218 50/32/218 98/46/218
f 80/79/219 48/14/219 92/12/219
f 78/78/220 90/61/220 50/63/220
f 87/69/221 88/70/221 83/73/221
f 89/7/222 81/8/222 88/70/222
f 54/20/223 105/21/223 72/30/223
f 63/35/224 105/21/224 51/3/224
f 75/23/225 106/31/225 76/28/225
f 73/27/226 106/31/226 72/30/226
f 76/28/227 107/29/227 77/25/227
f 74/24/228 107/29/228 73/27/228
f 66/17/229 108/42/229 69/41/229
f 70/39/230 108/42/230 67/86/230
f 67/86/231 109/40/231 70/39/231
f 71/38/232 109/40/232 68/37/232
f 62/5/233 110/6/233 69/41/233
f 59/19/234 110/6/234 49/4/234
